<svg id="Layer_1" data-name="Layer 1" xmlns="http://www.w3.org/2000/svg" viewBox="0 0 145 72"><defs><style>.qb-cls-1{fill:#2ea048;}.qb-cls-2{fill:#fff;}</style></defs><g id="Icon"><circle id="Circle" class="qb-cls-1" cx="72.5" cy="36" r="18.79"/><path id="qb" class="qb-cls-2" d="M58.93,36a7.31,7.31,0,0,0,7.31,7.31h1V40.59h-1a4.59,4.59,0,1,1,0-9.18h2.5V45.6a2.72,2.72,0,0,0,2.72,2.72V28.69H66.24A7.31,7.31,0,0,0,58.93,36Zm19.83-7.31h-1v2.72h1a4.59,4.59,0,1,1,0,9.18h-2.5V26.4a2.72,2.72,0,0,0-2.72-2.72V43.31h5.22a7.31,7.31,0,0,0,0-14.62Z"/></g></svg>