<svg id="Layer_1" data-name="Layer 1" xmlns="http://www.w3.org/2000/svg" viewBox="0 0 145 72"><defs><style>.cls-1-sf{fill:#17a0db;}.cls-2-sf{fill:#fff;}</style></defs><path class="cls-1-sf" d="M68.25,22.94A8.89,8.89,0,0,1,82.5,24.82a10.71,10.71,0,0,1,4.42-.94,11,11,0,1,1-2.15,21.84A8,8,0,0,1,74.3,49a9.12,9.12,0,0,1-16.95-.41,8.28,8.28,0,0,1-1.74.18,8.57,8.57,0,0,1-4.23-16,9.85,9.85,0,0,1,16.87-9.88"/><path class="cls-2-sf" d="M54.49,37.48c0,.08,0,.1,0,.11l.29.18a3.15,3.15,0,0,0,1.52.35c1,0,1.68-.55,1.68-1.44v0c0-.82-.73-1.12-1.41-1.34l-.09,0c-.51-.16-1-.31-1-.65v0c0-.29.26-.5.66-.5a3,3,0,0,1,1.33.34s.1.06.13,0l.22-.56a.11.11,0,0,0-.06-.12,2.92,2.92,0,0,0-1.49-.4h-.1a1.45,1.45,0,0,0-1.62,1.4v0c0,.86.74,1.15,1.42,1.34l.11,0c.5.15.94.28.94.63v0c0,.32-.28.56-.74.56A2.48,2.48,0,0,1,55,37l-.17-.11s-.1,0-.13,0l-.21.57Z"/><path class="cls-2-sf" d="M69.72,37.48c0,.08,0,.1,0,.11l.29.18a3.13,3.13,0,0,0,1.52.35c1,0,1.68-.55,1.68-1.44v0c0-.82-.73-1.12-1.41-1.34l-.09,0c-.52-.16-1-.31-1-.65v0c0-.29.26-.5.66-.5a3,3,0,0,1,1.32.34s.1.06.14,0l.21-.56a.09.09,0,0,0,0-.12,2.92,2.92,0,0,0-1.49-.4h-.1a1.45,1.45,0,0,0-1.62,1.4v0c0,.86.73,1.15,1.42,1.34l.11,0c.5.15.93.28.93.63v0c0,.32-.28.56-.73.56A2.48,2.48,0,0,1,70.23,37l-.17-.11a.09.09,0,0,0-.14,0l-.2.57Z"/><path class="cls-2-sf" d="M80.11,35.73a2.08,2.08,0,0,1-.28,1.18,1.05,1.05,0,0,1-1.68,0,2.16,2.16,0,0,1-.28-1.18,2.13,2.13,0,0,1,.28-1.17.91.91,0,0,1,.84-.41.94.94,0,0,1,.85.41,2.13,2.13,0,0,1,.27,1.17M81,34.8a2.19,2.19,0,0,0-.39-.76,1.87,1.87,0,0,0-.67-.5,2.37,2.37,0,0,0-1.86,0,1.87,1.87,0,0,0-.67.5,2,2,0,0,0-.39.76,3.43,3.43,0,0,0,0,1.87,2,2,0,0,0,.39.75,1.87,1.87,0,0,0,.67.5,2.24,2.24,0,0,0,.93.18,2.27,2.27,0,0,0,.93-.18,1.87,1.87,0,0,0,.67-.5,2.14,2.14,0,0,0,.39-.75,3.19,3.19,0,0,0,.13-.94A3.12,3.12,0,0,0,81,34.8"/><path class="cls-2-sf" d="M88.11,37.19a.08.08,0,0,0-.11,0,1.68,1.68,0,0,1-.4.11,2.45,2.45,0,0,1-.48,0,1.34,1.34,0,0,1-1-.37,1.63,1.63,0,0,1-.37-1.19,1.84,1.84,0,0,1,.33-1.14,1.1,1.1,0,0,1,1-.43,2.92,2.92,0,0,1,.92.13s.07,0,.1-.06.13-.36.21-.59c0-.07,0-.09,0-.1a2.83,2.83,0,0,0-.58-.15,4.28,4.28,0,0,0-.65,0,2.43,2.43,0,0,0-1,.18,2.15,2.15,0,0,0-.7.51,2.21,2.21,0,0,0-.42.75,3.19,3.19,0,0,0-.14.94,2.48,2.48,0,0,0,.58,1.73,2.21,2.21,0,0,0,1.71.64,3.51,3.51,0,0,0,1.23-.22.08.08,0,0,0,0-.1l-.22-.59Z"/><path class="cls-2-sf" d="M89.63,35.25a1.65,1.65,0,0,1,.24-.69.92.92,0,0,1,.84-.43.9.9,0,0,1,.82.43,1.44,1.44,0,0,1,.2.69Zm2.92-.61a1.78,1.78,0,0,0-.37-.69,1.72,1.72,0,0,0-.56-.43,2.21,2.21,0,0,0-.84-.17,2.24,2.24,0,0,0-1,.19,2,2,0,0,0-.68.52,2.12,2.12,0,0,0-.4.76,3.5,3.5,0,0,0-.13.94,3.14,3.14,0,0,0,.14.94,1.87,1.87,0,0,0,1.16,1.23,2.89,2.89,0,0,0,1.07.18,3.14,3.14,0,0,0,1.48-.3s.06-.05,0-.14l-.19-.54a.08.08,0,0,0-.11-.05,2.8,2.8,0,0,1-1.2.22A1.39,1.39,0,0,1,90,37a1.36,1.36,0,0,1-.34-1h2.94a.08.08,0,0,0,.08-.08,3.18,3.18,0,0,0-.09-1.26Z"/><path class="cls-2-sf" d="M66.09,35.25a1.65,1.65,0,0,1,.24-.69.92.92,0,0,1,.84-.43.89.89,0,0,1,.82.43,1.44,1.44,0,0,1,.2.69ZM69,34.64a1.78,1.78,0,0,0-.37-.69,1.72,1.72,0,0,0-.56-.43,2.21,2.21,0,0,0-.84-.17,2.24,2.24,0,0,0-1,.19,2,2,0,0,0-.68.52,2.12,2.12,0,0,0-.4.76,3.5,3.5,0,0,0-.13.94,3.14,3.14,0,0,0,.14.94,1.87,1.87,0,0,0,1.16,1.23,2.89,2.89,0,0,0,1.07.18,3.14,3.14,0,0,0,1.48-.3s.06-.05,0-.14l-.2-.54a.08.08,0,0,0-.11-.05,2.8,2.8,0,0,1-1.2.22,1.39,1.39,0,0,1-1-.35,1.36,1.36,0,0,1-.34-1H69a.08.08,0,0,0,.08-.08A3,3,0,0,0,69,34.64Z"/><path class="cls-2-sf" d="M59.74,37.17a.52.52,0,0,1-.17-.17.69.69,0,0,1-.09-.38.65.65,0,0,1,.26-.57,1.35,1.35,0,0,1,.86-.21,5.55,5.55,0,0,1,.79.06v1.34h0a6.35,6.35,0,0,1-.79.11,1.32,1.32,0,0,1-.86-.18m1.17-2.06h-.46a2.78,2.78,0,0,0-.72.09,2.06,2.06,0,0,0-.62.28,1.33,1.33,0,0,0-.42.49,1.34,1.34,0,0,0-.16.68,1.54,1.54,0,0,0,.13.67,1.23,1.23,0,0,0,.39.46,1.65,1.65,0,0,0,.6.26,3.64,3.64,0,0,0,.77.08,5.29,5.29,0,0,0,.9-.08l.74-.14.2-.06a.08.08,0,0,0,.07-.09V35.05a1.65,1.65,0,0,0-.47-1.3,2,2,0,0,0-1.35-.4,5.27,5.27,0,0,0-.79.07,2.69,2.69,0,0,0-.9.33.1.1,0,0,0,0,.12l.21.56a.07.07,0,0,0,.1,0l0,0a3,3,0,0,1,1.28-.3,1.22,1.22,0,0,1,.73.19c.16.13.24.31.24.7v.13l-.48-.06"/><path class="cls-2-sf" d="M84.61,33.59a.07.07,0,0,0,0-.1,3.14,3.14,0,0,0-.49-.09,1.54,1.54,0,0,0-1.26.49v-.35a.08.08,0,0,0-.08-.09H82a.09.09,0,0,0-.09.09v4.38A.09.09,0,0,0,82,38h.77a.09.09,0,0,0,.09-.09V35.73A2.4,2.4,0,0,1,83,35a1,1,0,0,1,.26-.43.8.8,0,0,1,.36-.22,1.55,1.55,0,0,1,.39-.06,1.67,1.67,0,0,1,.33,0s.08,0,.1-.08.2-.53.22-.62"/><path class="cls-2-sf" d="M77.37,31.56l-.29-.07a2.41,2.41,0,0,0-.4,0,1.69,1.69,0,0,0-1.25.45,2.42,2.42,0,0,0-.59,1.33l0,.2h-.67a.11.11,0,0,0-.1.09l-.11.61c0,.06,0,.09.1.09h.65L74,37.91a4.08,4.08,0,0,1-.18.73,1.3,1.3,0,0,1-.21.41.49.49,0,0,1-.26.21,1,1,0,0,1-.35.05l-.24,0-.15-.06a.1.1,0,0,0-.11.05l-.22.6a.09.09,0,0,0,0,.12l.27.08a2.29,2.29,0,0,0,.43,0,2,2,0,0,0,.72-.12,1.38,1.38,0,0,0,.54-.37,1.94,1.94,0,0,0,.38-.66A5.84,5.84,0,0,0,75,38l.66-3.75h1a.09.09,0,0,0,.1-.08l.11-.61c0-.06,0-.1-.1-.1h-.94a4.73,4.73,0,0,1,.16-.66.92.92,0,0,1,.2-.31.63.63,0,0,1,.25-.16,1,1,0,0,1,.32,0l.24,0,.15,0c.09,0,.11,0,.13,0l.22-.61a.09.09,0,0,0,0-.11"/><path class="cls-2-sf" d="M64.24,37.92a.09.09,0,0,1-.09.09h-.78a.08.08,0,0,1-.08-.09V31.65a.08.08,0,0,1,.08-.09h.78a.09.09,0,0,1,.09.09v6.27Z"/></svg>