<svg xmlns="http://www.w3.org/2000/svg" xmlns:xlink="http://www.w3.org/1999/xlink" viewBox="0 0 145 72"><defs><style>.xero-cls-1{fill:none;}.xero-cls-2{isolation:isolate;}.xero-cls-3{mix-blend-mode:multiply;}.xero-cls-4{xero-clip-path:url(#xero-clip-path);}.xero-cls-5{xero-clip-path:url(#xero-clip-path-2);}.xero-cls-6{fill:#00b2d5;}.xero-cls-7{fill:#fff;}</style><clipPath id="xero-clip-path"><rect class="xero-cls-1" x="47.96" y="11.46" width="49.08" height="49.08"/></clipPath><clipPath id="xero-clip-path-2"><rect class="xero-cls-1" x="49.42" y="12.92" width="46.15" height="46.15"/></clipPath></defs><g class="xero-cls-2"><g id="Layer_1" data-name="Layer 1"><g class="xero-cls-3"><g class="xero-cls-4"><g class="xero-cls-5"><path class="xero-cls-6" d="M72.5,59.08A23.08,23.08,0,1,0,49.42,36,23.08,23.08,0,0,0,72.5,59.08"/><path class="xero-cls-7" d="M60.47,35.93,64.41,32a.72.72,0,0,0,.2-.5.71.71,0,0,0-.7-.71.75.75,0,0,0-.51.21l-3.93,3.94L55.52,31a.73.73,0,0,0-.5-.21.71.71,0,0,0-.5,1.21l3.94,3.94-3.93,3.94a.72.72,0,0,0-.22.51.7.7,0,0,0,.71.7.72.72,0,0,0,.5-.2l3.94-4,3.93,3.93a.69.69,0,0,0,.52.22.71.71,0,0,0,.5-1.2Z"/><path class="xero-cls-7" d="M83.88,35.93a1.29,1.29,0,1,0,1.28-1.28,1.28,1.28,0,0,0-1.28,1.28"/><path class="xero-cls-7" d="M80,35.93a5.18,5.18,0,1,0,5.17-5.17A5.18,5.18,0,0,0,80,35.93m1.46,0a3.72,3.72,0,1,1,3.71,3.72,3.72,3.72,0,0,1-3.71-3.72"/><path class="xero-cls-7" d="M79.62,30.85h-.21a2.89,2.89,0,0,0-1.81.61.71.71,0,0,0-.69-.56.7.7,0,0,0-.7.7v8.72a.71.71,0,1,0,1.41,0V35c0-1.79.17-2.51,1.7-2.7a2.37,2.37,0,0,1,.29,0,.69.69,0,0,0,.72-.69.7.7,0,0,0-.71-.7"/><path class="xero-cls-7" d="M74.78,35a5.14,5.14,0,0,0-2.29-3.38A5.18,5.18,0,0,0,64.54,36a4.93,4.93,0,0,0,.16,1.25,5.21,5.21,0,0,0,4.39,3.86A4.89,4.89,0,0,0,71,41a5.14,5.14,0,0,0,1.55-.66A5.8,5.8,0,0,0,73.82,39l0,0a.76.76,0,0,0-.08-1.08.7.7,0,0,0-1,.15,2.39,2.39,0,0,1-.25.33,4.16,4.16,0,0,1-1,.82,3.74,3.74,0,0,1-5.28-2,4,4,0,0,1-.16-.59s0-.08,0-.11h7.37A1.3,1.3,0,0,0,74.78,35m-8.71.13a.13.13,0,0,1,0-.06,3.74,3.74,0,0,1,7.26.06Z"/></g></g></g></g></g></svg>