<svg xmlns="http://www.w3.org/2000/svg" xmlns:xlink="http://www.w3.org/1999/xlink" viewBox="0 0 145 72"><defs><style>.cls-1{fill:none;}.cls-2{isolation:isolate;}.cls-3{mix-blend-mode:multiply;}.cls-4{clip-path:url(#clip-path);}.cls-5{clip-path:url(#clip-path-2);}.cls-6{fill:#f04e23;}</style><clipPath id="clip-path"><rect class="cls-1" x="35.58" y="18.14" width="73.83" height="35.71"/></clipPath><clipPath id="clip-path-2"><rect class="cls-1" x="37.37" y="19.93" width="70.26" height="32.14"/></clipPath></defs><g class="cls-2"><g id="Layer_1" data-name="Layer 1"><g class="cls-3"><g class="cls-4"><g class="cls-5"><path class="cls-6" d="M37.37,45.23l7.27-11.32H38.23a7.13,7.13,0,0,1,0-2.13H48.6l.14.36L41.41,43.48h6.87a7.8,7.8,0,0,1,.08,1.1,6.59,6.59,0,0,1-.08,1H37.5Z"/><path class="cls-6" d="M58.36,36.5a2.62,2.62,0,0,0-.81-2.21,3.83,3.83,0,0,0-2.35-.62,9.78,9.78,0,0,0-1.76.15,13.84,13.84,0,0,0-1.6.39,4.1,4.1,0,0,1-.52-2.13,12.76,12.76,0,0,1,2-.46,14.47,14.47,0,0,1,2.13-.16,6,6,0,0,1,4.1,1.23A5,5,0,0,1,61,36.61v8.65c-.63.14-1.39.29-2.29.44a16.73,16.73,0,0,1-2.75.23,10.83,10.83,0,0,1-2.38-.24,5.08,5.08,0,0,1-1.81-.79,3.62,3.62,0,0,1-1.14-1.37,4.6,4.6,0,0,1-.41-2,4.25,4.25,0,0,1,.47-2A4.39,4.39,0,0,1,51.94,38a5.88,5.88,0,0,1,1.86-.86A8.42,8.42,0,0,1,56,36.88c.58,0,1.05,0,1.42,0s.67,0,.93.09Zm0,2.61-1-.11c-.41,0-.76,0-1,0a4.39,4.39,0,0,0-2.54.62,2.14,2.14,0,0,0-.88,1.89,2.26,2.26,0,0,0,.3,1.26,1.91,1.91,0,0,0,.74.7,2.61,2.61,0,0,0,1,.3,9.15,9.15,0,0,0,1,.05c.42,0,.84,0,1.28-.06a8.67,8.67,0,0,0,1.18-.21Z"/><path class="cls-6" d="M63.88,31.78l.55-.08.58,0,.57,0,.56.08a1.77,1.77,0,0,1,.07.34c0,.19.05.39.08.61s0,.42.08.62a2.87,2.87,0,0,1,0,.37,6.05,6.05,0,0,1,.65-.83,4.41,4.41,0,0,1,.9-.73,5,5,0,0,1,2.65-.7,6.33,6.33,0,0,1,2.25.4,4.47,4.47,0,0,1,1.78,1.26,6,6,0,0,1,1.16,2.15,10.13,10.13,0,0,1,.42,3.09,7.72,7.72,0,0,1-1.93,5.56,7.19,7.19,0,0,1-5.45,2,10.26,10.26,0,0,1-1.22-.08,7.69,7.69,0,0,1-1.07-.22V52a5,5,0,0,1-.69.08l-.66,0-.66,0a4.26,4.26,0,0,1-.66-.08Zm2.67,11.56a4.77,4.77,0,0,0,1,.27,10.36,10.36,0,0,0,1.4.08,4.8,4.8,0,0,0,1.77-.31,3.43,3.43,0,0,0,1.39-1,4.76,4.76,0,0,0,.92-1.63,7.38,7.38,0,0,0,.34-2.33,6.42,6.42,0,0,0-.8-3.43A2.84,2.84,0,0,0,70,33.78a3.52,3.52,0,0,0-1.29.24,3.11,3.11,0,0,0-1.11.73A3.66,3.66,0,0,0,66.84,36a4.72,4.72,0,0,0-.29,1.77Z"/><path class="cls-6" d="M79.53,33.89H77.78a3.27,3.27,0,0,1-.08-.5,5.15,5.15,0,0,1,0-1.11,3.27,3.27,0,0,1,.08-.5h4.36V45.6a4,4,0,0,1-.66.08l-.66,0-.63,0a4.26,4.26,0,0,1-.66-.08Z"/><path class="cls-6" d="M87.88,39.35a4.57,4.57,0,0,0,1.17,3.32,4.67,4.67,0,0,0,3.3,1A10.09,10.09,0,0,0,96,43.05a3.73,3.73,0,0,1,.35,1,5.79,5.79,0,0,1,.16,1.14,8.71,8.71,0,0,1-2,.57,14.19,14.19,0,0,1-2.36.19A8.88,8.88,0,0,1,89,45.4a5.74,5.74,0,0,1-2.22-1.48,5.81,5.81,0,0,1-1.28-2.26,9.66,9.66,0,0,1-.41-2.87,10.16,10.16,0,0,1,.39-2.87,6.64,6.64,0,0,1,1.2-2.32,5.91,5.91,0,0,1,2-1.56,6.62,6.62,0,0,1,2.89-.58,6,6,0,0,1,2.51.49,4.92,4.92,0,0,1,1.8,1.33,5.74,5.74,0,0,1,1.11,2,8.29,8.29,0,0,1,.38,2.54c0,.26,0,.52,0,.8s0,.52-.06.71Zm6.85-2a4.92,4.92,0,0,0-.21-1.44,3.54,3.54,0,0,0-.59-1.2,2.89,2.89,0,0,0-1-.82,3.06,3.06,0,0,0-1.44-.31,3.18,3.18,0,0,0-2.52,1,4.92,4.92,0,0,0-1.06,2.77Z"/><path class="cls-6" d="M100.3,31.78l.57-.08.56,0,.6,0,.54.08c.05.27.1.63.16,1.07a10.27,10.27,0,0,1,.08,1.12,5.61,5.61,0,0,1,1.49-1.59,4,4,0,0,1,2.39-.68l.44,0,.39,0a2.72,2.72,0,0,1,.08.51,5.17,5.17,0,0,1,0,.57,5.33,5.33,0,0,1,0,.67c0,.23-.06.46-.09.67a2.3,2.3,0,0,0-.45,0h-.36a4.86,4.86,0,0,0-1.39.2,3,3,0,0,0-1.19.71,3.64,3.64,0,0,0-.83,1.41,6.93,6.93,0,0,0-.31,2.28V45.6a4.26,4.26,0,0,1-.66.08l-.66,0-.66,0a5,5,0,0,1-.69-.08Z"/><path class="cls-6" d="M84.69,23.66H82.08l1.84-1.85a4.26,4.26,0,0,0-.48-.57h0a4.26,4.26,0,0,0-.57-.48L81,22.6V20a4.52,4.52,0,0,0-.74-.06h0a4.52,4.52,0,0,0-.74.06V22.6l-1.85-1.84a3.64,3.64,0,0,0-.56.48h0a6.57,6.57,0,0,0-.48.57l1.85,1.85H75.87a7.33,7.33,0,0,0-.07.74h0a4.54,4.54,0,0,0,.07.75h2.61L76.63,27a4.59,4.59,0,0,0,1.05,1.06l1.85-1.85v2.61a4.52,4.52,0,0,0,.74.06h0a4.52,4.52,0,0,0,.74-.06V26.2l1.85,1.85a5.27,5.27,0,0,0,.57-.49,3.29,3.29,0,0,0,.48-.57l-1.84-1.84h2.61a4.52,4.52,0,0,0,.06-.74h0a4.52,4.52,0,0,0-.06-.74m-3.3.74a2.71,2.71,0,0,1-.17,1,2.66,2.66,0,0,1-.94.17h0a2.67,2.67,0,0,1-1-.17,2.71,2.71,0,0,1-.17-1h0a2.66,2.66,0,0,1,.17-.94,2.68,2.68,0,0,1,1-.18h0a2.66,2.66,0,0,1,.94.18,2.66,2.66,0,0,1,.17.94Z"/></g></g></g></g></g></svg>