<svg xmlns="http://www.w3.org/2000/svg" xmlns:xlink="http://www.w3.org/1999/xlink" viewBox="0 0 145 72"><defs><style>.zoho-cls-1{fill:none;}.zoho-cls-2{isolation:isolate;}
.zoho-cls-3{mix-blend-mode:multiply;}.zoho-cls-4{clip-path:url(#clip-path);}.zoho-cls-5{fill:#e79224;}.zoho-cls-6{clip-path:url(#clip-path-2);}.zoho-cls-7{fill:url(#linear-gradient);}.zoho-cls-8{fill:#fef16f;}
.zoho-cls-9{fill:#91c9ed;}.zoho-cls-10{clip-path:url(#clip-path-3);}.zoho-cls-11{fill:url(#linear-gradient-2);}.zoho-cls-12{fill:#0c99d6;}.zoho-cls-13{clip-path:url(#clip-path-4);}.zoho-cls-14{fill:url(#linear-gradient-3);}.zoho-cls-15{fill:#98d0a0;}.zoho-cls-16{fill:#67bf6c;}.zoho-cls-17{clip-path:url(#clip-path-5);}.zoho-cls-18{fill:url(#linear-gradient-4);}.zoho-cls-19{fill:#ef463e;}
.zoho-cls-20{fill:#761116;}.zoho-cls-21{clip-path:url(#clip-path-6);}.zoho-cls-22{fill:#fff;}</style><clipPath id="clip-path"><rect class="zoho-cls-1" x="27.85" y="19.43" width="89.3" height="33.14"/></clipPath><clipPath id="clip-path-2"><rect class="zoho-cls-1" x="94.01" y="30.72" width="18.59" height="19.91"/></clipPath><linearGradient id="linear-gradient" x1="204.71" y1="324.62" x2="206.49" y2="324.62" gradientTransform="matrix(0, 10.66, 10.66, 0, -3355.77, -2150.34)" gradientUnits="userSpaceOnUse"><stop offset="0" stop-color="#ffe501"/><stop offset="0.01" stop-color="#ffe501"/><stop offset="1" stop-color="#fcb822"/></linearGradient><clipPath id="clip-path-3"><polygon class="zoho-cls-1" points="73.77 32.56 72.72 33.38 75.15 50.63 93.19 48.09 90.65 30.26 73.77 32.56"/></clipPath><linearGradient id="linear-gradient-2" x1="176.22" y1="374.46" x2="178.01" y2="374.46" gradientTransform="matrix(0, 13.4, 13.4, 0, -4934.44, -2332.67)" gradientUnits="userSpaceOnUse"><stop offset="0" stop-color="#168ccc"/><stop offset="0.01" stop-color="#168ccc"/><stop offset="0.32" stop-color="#1183c2"/><stop offset="0.84" stop-color="#056ca7"/><stop offset="1" stop-color="#00649e"/></linearGradient><clipPath id="clip-path-4"><polygon class="zoho-cls-1" points="51.14 43.48 67.33 50.78 74.64 34.2 58.45 26.89 51.14 43.48"/></clipPath><linearGradient id="linear-gradient-3" x1="200.97" y1="313.26" x2="202.75" y2="313.26" gradientTransform="matrix(0, 9.34, 9.34, 0, -2861.54, -1842.63)" gradientUnits="userSpaceOnUse"><stop offset="0" stop-color="#26a149"/><stop offset="0.59" stop-color="#11944f"/><stop offset="1" stop-color="#008a53"/></linearGradient><clipPath id="clip-path-5"><polygon class="zoho-cls-1" points="29.64 33 32.51 50.59 50.4 47.78 47.73 30.23 29.64 33"/></clipPath><linearGradient id="linear-gradient-4" x1="190.51" y1="321.9" x2="192.3" y2="321.9" gradientTransform="matrix(0, 9.82, 9.82, 0, -3122.5, -1839.87)" gradientUnits="userSpaceOnUse"><stop offset="0" stop-color="#d92231"/><stop offset="0.63" stop-color="#c72233"/><stop offset="1" stop-color="#ba2235"/></linearGradient><clipPath id="clip-path-6"><rect class="zoho-cls-1" x="29.63" y="21.22" width="85.73" height="29.57"/></clipPath></defs><g class="zoho-cls-2"><g id="Layer_1" data-name="Layer 1"><g class="zoho-cls-3"><g class="zoho-cls-4"><polygon class="zoho-cls-5" points="112.56 30.72 112.56 50.6 115.37 47.86 115.37 27.53 112.56 30.72"/><g class="zoho-cls-6"><rect class="zoho-cls-7" x="94.01" y="30.72" width="18.59" height="19.91"/></g><polygon class="zoho-cls-8" points="96.92 27.54 94.01 30.72 112.6 30.72 115.37 27.53 96.92 27.54"/><polygon class="zoho-cls-9" points="73.89 28.41 92.18 25.87 90.65 30.26 73.33 33 73.4 29.87 73.89 28.41"/><g class="zoho-cls-10"><rect class="zoho-cls-11" x="68.6" y="26.08" width="28.7" height="28.72" transform="translate(-0.52 79.8) rotate(-51.23)"/></g><polyline class="zoho-cls-12" points="92.18 25.87 92.2 25.98 94.57 44.24 93.19 48.09 90.65 30.26"/><g class="zoho-cls-13"><rect class="zoho-cls-14" x="51.14" y="26.89" width="23.5" height="23.89"/></g><polygon class="zoho-cls-15" points="56.77 21.22 58.45 26.89 74.64 34.2 73.28 28.77 56.77 21.22"/><polygon class="zoho-cls-16" points="56.77 21.22 50.25 36.68 51.14 43.48 58.45 26.89 56.77 21.22"/><g class="zoho-cls-17"><rect class="zoho-cls-18" x="28.11" y="28.67" width="23.81" height="23.48" transform="translate(-6.07 7.08) rotate(-9.41)"/></g><polygon class="zoho-cls-19" points="30.89 26.73 29.63 33 47.73 30.23 48.96 23.84 30.89 26.73"/><polygon class="
zoho-cls-20" points="48.96 23.84 51.61 41.56 50.4 47.78 47.73 30.23 48.96 23.84"/><g class="zoho-cls-21"><path class="zoho-cls-22" d="M109.77,37.88a7.5,7.5,0,0,0-1.64-2.48,7,7,0,0,0-2.32-1.6,7.23,7.23,0,0,0-2.77-.53,7.38,7.38,0,0,0-2.8.53,6.76,6.76,0,0,0-2.32,1.6,6.93,6.93,0,0,0-1.62,2.47,8.57,8.57,0,0,0,0,6,7.42,7.42,0,0,0,1.62,2.5A6.6,6.6,0,0,0,100.21,48a7.43,7.43,0,0,0,2.83.53,7.3,7.3,0,0,0,2.77-.53,6.86,6.86,0,0,0,2.32-1.57,7.54,7.54,0,0,0,1.64-2.49,8.57,8.57,0,0,0,0-6M106,44.44a4,4,0,0,1-5.84,0A5.36,5.36,0,0,1,99,40.9a5.5,5.5,0,0,1,1.07-3.6,3.94,3.94,0,0,1,5.85,0A5.5,5.5,0,0,1,107,40.9,5.4,5.4,0,0,1,106,44.44m-64.34-4ZM45.81,45a1.33,1.33,0,0,0-.56-.38,2.75,2.75,0,0,0-.86-.12,6.69,6.69,0,0,0-1.1.11l-4.72.8A4.6,4.6,0,0,1,39.11,44a20.55,20.55,0,0,1,1.58-2.35l.55-.73.37-.49a11.62,11.62,0,0,0,2-3.48,7.52,7.52,0,0,0,.27-1.55c0-.15,0-.29,0-.43a6.71,6.71,0,0,0-.09-1.1,3.26,3.26,0,0,0-.25-.83,1.2,1.2,0,0,0-.42-.49,1.64,1.64,0,0,0-.81-.16,6.33,6.33,0,0,0-1.06.1l-5.45.93a2.83,2.83,0,0,0-1.47.61,1.18,1.18,0,0,0-.37.87,1.33,1.33,0,0,0,0,.28,1.19,1.19,0,0,0,.7,1,2.1,2.1,0,0,0,.84.15,5,5,0,0,0,.73-.06l4.56-.77a1.94,1.94,0,0,1,0,.24,2.39,2.39,0,0,1-.15.83,6.83,6.83,0,0,1-1,1.61L39,39a22.12,22.12,0,0,0-2.65,3.82h0A8.13,8.13,0,0,0,35.56,45a5.62,5.62,0,0,0-.13,1.19,5.16,5.16,0,0,0,.06.79,3.5,3.5,0,0,0,.28.91,1.26,1.26,0,0,0,.47.52,1.84,1.84,0,0,0,.8.13,12.09,12.09,0,0,0,1.85-.2l5-.85a3.94,3.94,0,0,0,1.84-.65,1.13,1.13,0,0,0,.43-.92,1.53,1.53,0,0,0,0-.3,1.25,1.25,0,0,0-.27-.62M68.27,33.13A6.76,6.76,0,0,0,66,31.54,7,7,0,0,0,63.23,31h0a6.83,6.83,0,0,0-2.76.62A7.55,7.55,0,0,0,58,33.32,9,9,0,0,0,56.24,36a8.58,8.58,0,0,0-.72,3.08c0,.12,0,.23,0,.35A7.85,7.85,0,0,0,56,42.09a6.63,6.63,0,0,0,1.45,2.38,7.13,7.13,0,0,0,2.37,1.6,6.65,6.65,0,0,0,2.71.56h0A7,7,0,0,0,65.29,46h0a7.84,7.84,0,0,0,2.5-1.75,9.3,9.3,0,0,0,2.44-5.75v-.3a7.63,7.63,0,0,0-.49-2.7,6.77,6.77,0,0,0-1.47-2.41M66.5,40.35a5.82,5.82,0,0,1-2.41,3,3.43,3.43,0,0,1-1.65.44,3.9,3.9,0,0,1-1.52-.33,3.51,3.51,0,0,1-2.15-2.36,4.39,4.39,0,0,1-.15-1.16,6.77,6.77,0,0,1,.61-2.64,5.88,5.88,0,0,1,2.43-3,3.4,3.4,0,0,1,1.65-.44,4,4,0,0,1,1.54.34A3.46,3.46,0,0,1,67,36.5a4.22,4.22,0,0,1,.15,1.13,7,7,0,0,1-.63,2.72m21.09-6.68A2.12,2.12,0,0,0,87,32.42a1.3,1.3,0,0,0-.9-.33l-.28,0a1.4,1.4,0,0,0-1,.64,1.74,1.74,0,0,0-.24.93,3.49,3.49,0,0,0,0,.44l.66,4.64-5.18.76-.66-4.64a2.12,2.12,0,0,0-.57-1.25,1.27,1.27,0,0,0-.89-.34,1.06,1.06,0,0,0-.25,0,1.48,1.48,0,0,0-1.09.63,1.75,1.75,0,0,0-.24.94,3.61,3.61,0,0,0,0,.44l1.78,12.07a1.94,1.94,0,0,0,.59,1.25,1.39,1.39,0,0,0,.92.32l.3,0a1.31,1.31,0,0,0,1-.64,1.78,1.78,0,0,0,.23-.91,3.42,3.42,0,0,0,0-.44l-.72-4.77,5.18-.76.73,4.77a2,2,0,0,0,.58,1.24,1.34,1.34,0,0,0,.91.33l.28,0a1.38,1.38,0,0,0,1-.64,1.75,1.75,0,0,0,.22-.91,3.64,3.64,0,0,0,0-.45Z"/></g></g></g></g></g></svg>