<?xml version="1.0" encoding="utf-8"?>
<!-- Generator: Adobe Illustrator 24.1.3, SVG Export Plug-In . SVG Version: 6.00 Build 0)  -->
<svg version="1.0" xmlns="http://www.w3.org/2000/svg" xmlns:xlink="http://www.w3.org/1999/xlink" x="0px" y="0px"
	 viewBox="0 0 109.75 109.74" style="enable-background:new 0 0 109.75 109.74;" xml:space="preserve">
<style type="text/css">
	.st0{fill:none;}
	.st1{fill:#FFFFFF;}
	.st2{fill:#33A544;}
</style>
<g id="artwork">
	<g>
		<rect class="st0" width="109.75" height="109.74"/>
	</g>
	<g id="grid_logo">
	</g>
</g>
<g id="Layer_1">
	<g>
		<g>
			<rect x="33.9" y="12.35" class="st1" width="59.53" height="85.04"/>
		</g>
		<g>
			<g>
				<g>
					<rect x="67.1" y="82.44" class="st2" width="21.24" height="8.14"/>
					<rect x="67.1" y="66.57" class="st2" width="21.24" height="8.14"/>
					<rect x="67.1" y="50.7" class="st2" width="21.24" height="8.14"/>
					<rect x="38.99" y="66.57" class="st2" width="21.24" height="8.14"/>
					<rect x="38.99" y="82.44" class="st2" width="21.24" height="8.14"/>
					<rect x="67.1" y="34.97" class="st2" width="21.24" height="8.14"/>
					<rect x="67.1" y="19.16" class="st2" width="21.24" height="8.14"/>
					<path class="st2" d="M33.9,12.35v85.04h59.53V12.35H33.9z M61.43,91.78H37.79V81.24h23.64V91.78z M61.43,75.91H37.79V65.37
						h23.64V75.91z M61.43,44.31H48.77c2.5,4.55,6.23,5.19,12.06,5.19h0.6v10.54h-0.6H37.79V49.5h3.95
						c-0.64-1.49-1.11-3.12-1.39-4.9l-0.04-0.23l0.04-0.06h-2.57V33.77h23.64V44.31z M61.43,28.5H37.79V17.96h23.64V28.5z
						 M89.54,91.78H65.9V81.24h23.64V91.78z M89.54,75.91H65.9V65.37h23.64V75.91z M89.54,60.04H65.9V49.5h23.64V60.04z
						 M89.54,44.31H65.9V33.77h23.64V44.31z M89.54,28.5H65.9V17.96h23.64V28.5z"/>
				</g>
			</g>
		</g>
	</g>
	<g>
		<rect x="9.95" y="34.97" class="st2" width="21.24" height="8.14"/>
	</g>
	<g>
		<rect x="9.95" y="19.16" class="st2" width="21.24" height="8.14"/>
	</g>
	<path class="st2" d="M41.58,44.65c1.54,9.11,7.98,14.01,18.65,14.18V50.7c-3.99-0.04-7.16-0.48-9.58-2.29
		c-2.35-1.76-3.96-4.75-5.12-9.61L41.58,44.65z"/>
</g>
</svg>
