<?xml version="1.0" encoding="utf-8"?>
<!-- Generator: Adobe Illustrator 24.1.3, SVG Export Plug-In . SVG Version: 6.00 Build 0)  -->
<svg version="1.0" xmlns="http://www.w3.org/2000/svg" xmlns:xlink="http://www.w3.org/1999/xlink" x="0px" y="0px"
	 viewBox="0 0 109.75 109.74" style="enable-background:new 0 0 109.75 109.74;" xml:space="preserve">
<style type="text/css">
	.st0{fill:none;}
	.st1{fill:#33A544;}
</style>
<g id="artwork">
	<g id="grid_logo">
	</g>
	<rect class="st0" width="109.75" height="109.74"/>
	<g>
		<polygon class="st1" points="78.41,75.39 78.41,70.79 78.41,56.63 78.41,42.45 27.81,42.45 27.81,56.63 27.81,70.79 27.81,75.39 
			27.81,95.55 78.41,95.55 		"/>
		<path class="st1" d="M91.15,70.79V56.63h4.89V30.81h-4.35l-1.28-4.72v-9.63h-6.13h-0.1H24.76h-0.1h-6.13v9.63l-1.92,4.72h-2.89
			v25.82h4.07v14.16v4.6v3.8l-2.11,5.9v3.5h4.22l3.47-9.7v-3.5h2.45v-4.6h-4.6V56.63h4.6V40.45h54.6v16.18h7.32v14.16h-7.32v4.6
			h5.17v3.5l3.47,9.7h4.22v-3.5l-2.11-5.9v-3.8V70.79z M24.66,30.81h-0.45h-2.54l1.58-4.22h55.16L80,30.81H24.66z M81.67,29.69
			l-0.91-2.45h6.84l0.91,2.45H81.67z"/>
	</g>
</g>
<g id="Layer_1">
</g>
</svg>
