<?xml version="1.0" encoding="utf-8"?>
<!-- Generator: Adobe Illustrator 24.1.3, SVG Export Plug-In . SVG Version: 6.00 Build 0)  -->
<svg version="1.0" id="artwork" xmlns="http://www.w3.org/2000/svg" xmlns:xlink="http://www.w3.org/1999/xlink" x="0px" y="0px"
	 viewBox="0 0 109.75 109.74" style="enable-background:new 0 0 109.75 109.74;" xml:space="preserve">
<style type="text/css">
	.st0{fill:none;}
	.st1{fill:#33A544;}
</style>
<g id="grid_logo">
</g>
<g>
	<rect class="st0" width="109.75" height="109.74"/>
</g>
<g>
	<path class="st1" d="M26.23,35.26c-1.05,0-2.04-0.65-2.41-1.7C21.8,27.95,11.55,25,9.11,24.75c-1.41-0.14-2.44-1.4-2.29-2.81
		c0.14-1.41,1.4-2.43,2.81-2.29c2.5,0.25,15.85,3.39,19.02,12.18c0.48,1.33-0.21,2.8-1.54,3.28C26.81,35.21,26.52,35.26,26.23,35.26
		z"/>
</g>
<g>
	<path class="st1" d="M30.65,45.11c-0.69,0-1.33-0.42-1.59-1.1c-0.33-0.88,0.11-1.86,0.99-2.19l19.2-7.27
		c0.88-0.33,1.86,0.11,2.19,0.99s-0.11,1.86-0.99,2.19L31.25,45C31.06,45.07,30.85,45.11,30.65,45.11z"/>
</g>
<g>
	<path class="st1" d="M46.67,26.57c-1.05,0-2.04-0.65-2.41-1.7c-2.02-5.61-12.27-8.56-14.71-8.81c-1.41-0.14-2.44-1.4-2.29-2.81
		c0.14-1.41,1.39-2.44,2.81-2.29c2.5,0.25,15.85,3.39,19.02,12.18c0.48,1.33-0.21,2.8-1.54,3.28
		C47.26,26.52,46.96,26.57,46.67,26.57z"/>
</g>
<path class="st1" d="M43.95,86.32c0.29-0.06,0.59-0.1,0.89-0.13L27.9,31.31c-0.28-0.9-1.23-1.4-2.12-1.12
	c-0.9,0.28-1.4,1.23-1.12,2.12L41.6,87.19C42.32,86.78,43.11,86.49,43.95,86.32z"/>
<path class="st1" d="M50.81,42.16l2.99-1c0.08-0.03,0.16-0.04,0.24-0.04l0.01,0l-5.69-18.5c-0.28-0.9-1.23-1.4-2.12-1.12
	c-0.9,0.28-1.4,1.23-1.12,2.12L50.81,42.16z"/>
<path class="st1" d="M36.06,52.51l-2.43,0.92c-0.88,0.33-1.32,1.31-0.99,2.19c0.26,0.68,0.9,1.1,1.59,1.1c0.2,0,0.4-0.04,0.6-0.11
	l2.23-0.85L36.06,52.51z"/>
<path class="st1" d="M72.82,93.71c-0.09,0.03-0.18,0.05-0.27,0.05c-0.01,0-0.02-0.01-0.02-0.01L55.7,93.78
	c0.1,0.25,0.19,0.51,0.27,0.78c0.18,0.59,0.3,1.19,0.39,1.78l15.4,0l17.38-6.56l-5.59-0.1L72.82,93.71z"/>
<path class="st1" d="M72.82,93.71c-0.09,0.03-0.18,0.05-0.27,0.05c-0.01,0-0.02-0.01-0.02-0.01l-12.35,0.02
	c1.77,2.64,4.58,4.34,7.38,4.34c0.44,0,0.89-0.04,1.33-0.13c2.44-0.49,4.17-2.27,4.89-4.63L72.82,93.71z"/>
<g>
	<polygon class="st1" points="88.61,86.21 82.15,65.21 66.83,70.98 73.28,91.98 	"/>
	<polygon class="st1" points="71.42,42.53 54.41,42.66 40.5,47.3 58.83,47.27 	"/>
</g>
<polygon class="st1" points="57.11,48.81 36.78,48.84 43.21,69.77 64.84,69.74 58.41,48.81 "/>
<polygon class="st1" points="81.7,63.73 75.25,42.73 59.92,48.5 66.38,69.5 "/>
<path class="st1" d="M54.99,92.24l16.75-0.03l-6.43-20.93l-1.3,0.01l-20.33,0.03l4.7,15.28C51.08,87.46,53.51,89.52,54.99,92.24z"/>
<path class="st1" d="M45.61,87.85c3.71,0,7.44,2.97,8.74,7.2c1.45,4.73-0.7,9.23-4.81,10.05c-0.44,0.09-0.88,0.13-1.33,0.13
	c-3.71,0-7.44-2.97-8.74-7.2c-1.45-4.73,0.7-9.23,4.81-10.05C44.72,87.9,45.17,87.85,45.61,87.85"/>
</svg>
