<?xml version="1.0" encoding="utf-8"?>
<!-- Generator: Adobe Illustrator 24.1.3, SVG Export Plug-In . SVG Version: 6.00 Build 0)  -->
<svg version="1.0" id="artwork" xmlns="http://www.w3.org/2000/svg" xmlns:xlink="http://www.w3.org/1999/xlink" x="0px" y="0px"
	 viewBox="0 0 108.88 108.87" style="enable-background:new 0 0 108.88 108.87;" xml:space="preserve">
<style type="text/css">
	.st0{fill:none;}
	.st1{fill:#33A544;}
</style>
<g id="grid_logo">
</g>
<g>
	<rect class="st0" width="108.88" height="108.87"/>
</g>
<g>
	<path class="st1" d="M37.55,12.56h17.79l3.13,13.76H40.68L37.55,12.56z M56.02,24.36l-2.24-9.84H40.01l2.24,9.84H56.02z"/>
</g>
<g>
	<rect x="45.67" y="24.37" class="st1" width="5.9" height="9.66"/>
</g>
<g>
	<polygon class="st1" points="58.57,29.09 58.57,31.96 42.83,31.96 42.83,34.49 73.19,34.49 73.19,29.09 	"/>
</g>
<g>
	<path class="st1" d="M57.08,87.61c0,1.42-1.15,2.56-2.56,2.56c-1.42,0-2.56-1.15-2.56-2.56c0-1.41,1.15-2.56,2.56-2.56
		C55.93,85.05,57.08,86.2,57.08,87.61z"/>
</g>
<g>
	<path class="st1" d="M43.55,87.61c0,1.42-1.15,2.56-2.56,2.56c-1.42,0-2.56-1.15-2.56-2.56c0-1.41,1.15-2.56,2.56-2.56
		C42.41,85.05,43.55,86.2,43.55,87.61z"/>
</g>
<g>
	<path class="st1" d="M69.86,87.61c0,1.42-1.15,2.56-2.56,2.56c-1.42,0-2.56-1.15-2.56-2.56c0-1.41,1.15-2.56,2.56-2.56
		C68.71,85.05,69.86,86.2,69.86,87.61z"/>
</g>
<path class="st1" d="M35.85,36.58v51.02h37.33V36.58H35.85z M69.58,79.07H39.46v-1.58h30.12V79.07z M69.58,73.1H39.46v-1.58h30.12
	V73.1z M69.58,67.13H39.46v-1.58h30.12V67.13z"/>
<g>
	<path class="st1" d="M16.05,36.58v18.34L1.3,50.91v3.7l14.75,4.82v28.19h2.56c0,1.42,1.15,2.56,2.56,2.56
		c1.42,0,2.56-1.15,2.56-2.56h3.05c0,1.42,1.15,2.56,2.56,2.56c1.42,0,2.56-1.15,2.56-2.56h1.85V36.58H16.05z"/>
</g>
<g>
	<path class="st1" d="M107.41,61.23v-3.7l-14.35,3.91V36.58H75.29v51.02h1.91c0,1.42,1.15,2.56,2.56,2.56
		c1.42,0,2.56-1.15,2.56-2.56h3.06c0,1.42,1.15,2.56,2.56,2.56c1.42,0,2.56-1.15,2.56-2.56h2.56v-3.17l14.35-4.69v-3.69l-14.35,3.91
		V65.92L107.41,61.23z"/>
</g>
</svg>
