<svg id="Layer_1" data-name="Layer 1" xmlns="http://www.w3.org/2000/svg" viewBox="0 0 315.22 446.78"><defs><style>.cls-1{fill:#fff;}</style></defs><path class="cls-1" d="M225.53,320.12a5.91,5.91,0,0,0-3.84-3.63L210,313a5.91,5.91,0,0,0-6.36,2L196,324.72a5.91,5.91,0,0,1-7.46,1.53l-10.95-5.93a5.91,5.91,0,0,0-6.62.67l-9.52,8a5.9,5.9,0,0,1-7.62,0l-9.52-8a5.93,5.93,0,0,0-6.63-.67l-10.94,5.93a5.91,5.91,0,0,1-7.46-1.53L111.53,315a5.89,5.89,0,0,0-6.35-2l-11.65,3.53a5.93,5.93,0,0,0-3.85,3.63L49.31,415.54A5.91,5.91,0,0,0,57.23,423L90,408.62a5.89,5.89,0,0,1,7.66,2.79l15.9,32.08a5.91,5.91,0,0,0,10.85-.6L152.05,367a5.92,5.92,0,0,1,11.12,0l27.61,75.87a5.92,5.92,0,0,0,10.86.6l15.88-32.08a5.91,5.91,0,0,1,7.67-2.79L258,423a5.91,5.91,0,0,0,7.92-7.44Z"/><path class="cls-1" d="M314,152.9a5.92,5.92,0,0,0-.39-7.6l-7.18-7.71a5.9,5.9,0,0,1-1-6.58L310,121.5a5.92,5.92,0,0,0-1.9-7.37l-8.59-6.1a5.92,5.92,0,0,1-2.31-6.25l2.54-10.22a5.91,5.91,0,0,0-3.36-6.84l-9.64-4.25a5.91,5.91,0,0,1-3.52-5.65l.43-10.53a5.92,5.92,0,0,0-4.66-6l-10.3-2.22a5.92,5.92,0,0,1-4.59-4.83l-1.7-10.4a5.89,5.89,0,0,0-5.78-5l-10.53-.11A5.91,5.91,0,0,1,240.6,32l-3.75-9.84a5.93,5.93,0,0,0-6.66-3.7l-10.35,2a5.91,5.91,0,0,1-6.11-2.63l-5.66-8.89a5.92,5.92,0,0,0-7.27-2.28l-9.72,4.07a5.91,5.91,0,0,1-6.52-1.35L177.22,1.8A5.91,5.91,0,0,0,169.65,1L160.94,7a5.91,5.91,0,0,1-6.66,0L145.57,1A5.91,5.91,0,0,0,138,1.8l-7.34,7.56a5.91,5.91,0,0,1-6.52,1.35l-9.73-4.07a5.92,5.92,0,0,0-7.26,2.28l-5.66,8.89a5.93,5.93,0,0,1-6.12,2.63L85,18.41a5.91,5.91,0,0,0-6.65,3.7L74.62,32a5.91,5.91,0,0,1-5.47,3.81l-10.54.11a5.89,5.89,0,0,0-5.77,5l-1.7,10.4a6,6,0,0,1-4.59,4.83l-10.3,2.22a5.91,5.91,0,0,0-4.66,6L32,74.82a5.91,5.91,0,0,1-3.52,5.65l-9.64,4.25a5.91,5.91,0,0,0-3.36,6.84l2.55,10.22A5.94,5.94,0,0,1,15.73,108l-8.59,6.1a5.92,5.92,0,0,0-1.91,7.37L9.78,131a5.9,5.9,0,0,1-1,6.58L1.59,145.3a5.91,5.91,0,0,0-.39,7.6l6.37,8.4A5.92,5.92,0,0,1,7.91,168l-5.49,9a5.92,5.92,0,0,0,1.15,7.52l7.93,6.95a5.9,5.9,0,0,1,1.67,6.44l-3.56,9.92a5.9,5.9,0,0,0,2.64,7.14l9.17,5.2a5.93,5.93,0,0,1,2.93,6l-1.49,10.43a5.91,5.91,0,0,0,4,6.46l10,3.25A5.91,5.91,0,0,1,41,251.51L41.62,262a5.91,5.91,0,0,0,5.25,5.52l10.47,1.17a5.91,5.91,0,0,1,5,4.33l2.74,10.18a5.91,5.91,0,0,0,6.25,4.35l10.49-1a5.9,5.9,0,0,1,5.82,3.24l4.74,9.41a5.89,5.89,0,0,0,7,3l10.09-3.05a5.91,5.91,0,0,1,6.35,2l6.53,8.27a5.93,5.93,0,0,0,7.46,1.54l9.26-5a5.91,5.91,0,0,1,6.63.68l8.06,6.78a5.92,5.92,0,0,0,7.62,0l8.06-6.78a5.9,5.9,0,0,1,6.62-.68l9.27,5a5.91,5.91,0,0,0,7.45-1.54l6.54-8.27a5.9,5.9,0,0,1,6.35-2l10.08,3.05a5.91,5.91,0,0,0,7-3l4.73-9.41a5.92,5.92,0,0,1,5.83-3.24l10.49,1a5.92,5.92,0,0,0,6.25-4.35l2.74-10.18a5.91,5.91,0,0,1,5-4.33l10.48-1.17A5.92,5.92,0,0,0,273.6,262l.64-10.52a5.91,5.91,0,0,1,4.07-5.27l10-3.25a5.91,5.91,0,0,0,4-6.46l-1.49-10.43a5.93,5.93,0,0,1,2.93-6l9.16-5.2a5.92,5.92,0,0,0,2.65-7.14l-3.56-9.92a5.91,5.91,0,0,1,1.66-6.44l7.93-6.95A5.91,5.91,0,0,0,312.8,177l-5.49-9a5.9,5.9,0,0,1,.34-6.65Zm-22.41,1.21-4.71,6.21a5.94,5.94,0,0,0-.34,6.65l4.07,6.65a5.92,5.92,0,0,1-1.16,7.53l-5.86,5.14a5.92,5.92,0,0,0-1.67,6.45l2.63,7.33a5.89,5.89,0,0,1-2.64,7.13l-6.77,3.85a5.91,5.91,0,0,0-2.94,6l1.11,7.71a5.91,5.91,0,0,1-4,6.46l-7.41,2.41a5.92,5.92,0,0,0-4.08,5.27l-.47,7.77a5.91,5.91,0,0,1-5.25,5.52l-7.74.87a5.91,5.91,0,0,0-5,4.33l-2,7.52a5.91,5.91,0,0,1-6.25,4.36l-7.75-.72a5.93,5.93,0,0,0-5.83,3.23l-3.5,7a5.91,5.91,0,0,1-7,3l-7.46-2.26a5.9,5.9,0,0,0-6.35,2l-4.83,6.11a5.91,5.91,0,0,1-7.46,1.53L174,285.4a5.89,5.89,0,0,0-6.62.67l-6,5a5.9,5.9,0,0,1-7.62,0l-6-5a5.89,5.89,0,0,0-6.62-.67l-6.85,3.71a5.91,5.91,0,0,1-7.46-1.53l-4.83-6.11a5.9,5.9,0,0,0-6.35-2l-7.46,2.26a5.92,5.92,0,0,1-7-3l-3.51-7A5.91,5.91,0,0,0,92,268.53l-7.76.72a5.92,5.92,0,0,1-6.25-4.36l-2-7.52a5.93,5.93,0,0,0-5-4.33l-7.75-.87a5.92,5.92,0,0,1-5.25-5.52l-.47-7.77a5.91,5.91,0,0,0-4.07-5.27l-7.42-2.41a5.9,5.9,0,0,1-4-6.46L43,217a5.9,5.9,0,0,0-2.93-6l-6.77-3.85a5.91,5.91,0,0,1-2.65-7.13l2.63-7.34a5.9,5.9,0,0,0-1.66-6.44l-5.87-5.14a5.91,5.91,0,0,1-1.14-7.52l4-6.66a5.89,5.89,0,0,0-.34-6.64l-4.71-6.22a5.91,5.91,0,0,1,.39-7.6l5.31-5.7a5.9,5.9,0,0,0,1-6.58l-3.36-7a5.89,5.89,0,0,1,1.91-7.36l6.35-4.52a6,6,0,0,0,2.32-6.25l-1.89-7.55A5.92,5.92,0,0,1,39,94.68l7.13-3.14a5.91,5.91,0,0,0,3.51-5.66l-.31-7.78a5.91,5.91,0,0,1,4.66-6l7.61-1.65a5.9,5.9,0,0,0,4.59-4.82l1.26-7.69a5.92,5.92,0,0,1,5.78-5L81,52.89a5.94,5.94,0,0,0,5.47-3.81l2.78-7.28a5.9,5.9,0,0,1,6.65-3.69l7.65,1.49A5.93,5.93,0,0,0,109.68,37l4.19-6.58a5.92,5.92,0,0,1,7.27-2.28l7.18,3a5.89,5.89,0,0,0,6.52-1.34l5.43-5.59a5.9,5.9,0,0,1,7.57-.77l6.44,4.39a6,6,0,0,0,6.66,0l6.44-4.39a5.9,5.9,0,0,1,7.57.77l5.42,5.59a5.91,5.91,0,0,0,6.53,1.34l7.18-3a5.92,5.92,0,0,1,7.27,2.28L205.53,37a6,6,0,0,0,6.13,2.62l7.65-1.49A5.9,5.9,0,0,1,226,41.8l2.78,7.28a5.91,5.91,0,0,0,5.46,3.81L242,53a5.93,5.93,0,0,1,5.78,5L249,65.61a5.92,5.92,0,0,0,4.59,4.82l7.62,1.65a5.92,5.92,0,0,1,4.66,6l-.32,7.78a5.92,5.92,0,0,0,3.52,5.66l7.13,3.14a5.9,5.9,0,0,1,3.36,6.83l-1.88,7.57a5.9,5.9,0,0,0,2.31,6.24l6.35,4.52a5.9,5.9,0,0,1,1.91,7.36l-3.36,7a5.91,5.91,0,0,0,1,6.58l5.32,5.7a5.91,5.91,0,0,1,.38,7.6"/><path class="cls-1" d="M271.77,143a5.92,5.92,0,0,1-1-6.58l2.55-5.32a5.91,5.91,0,0,0-1.91-7.37l-4.81-3.42a5.9,5.9,0,0,1-2.31-6.24l1.42-5.73a5.92,5.92,0,0,0-3.35-6.84L257,99.1a5.91,5.91,0,0,1-3.52-5.64l.24-5.9a5.91,5.91,0,0,0-4.66-6l-5.77-1.24a5.92,5.92,0,0,1-4.58-4.83l-.95-5.83a5.93,5.93,0,0,0-5.78-5l-5.9-.06a5.92,5.92,0,0,1-5.47-3.81l-2.1-5.51a5.89,5.89,0,0,0-6.65-3.69L206,52.75a5.93,5.93,0,0,1-6.12-2.63l-3.17-5a5.9,5.9,0,0,0-7.25-2.27L184,45.14a5.89,5.89,0,0,1-6.52-1.34l-4.1-4.24a5.94,5.94,0,0,0-7.58-.77l-4.88,3.32a5.89,5.89,0,0,1-6.65,0l-4.87-3.32a5.94,5.94,0,0,0-7.58.77l-4.1,4.24a5.91,5.91,0,0,1-6.53,1.34l-5.45-2.27a5.91,5.91,0,0,0-7.26,2.27l-3.17,5a5.92,5.92,0,0,1-6.12,2.63l-5.79-1.13a5.89,5.89,0,0,0-6.65,3.69l-2.11,5.51a5.91,5.91,0,0,1-5.46,3.81l-5.9.06a5.91,5.91,0,0,0-5.78,5l-1,5.83A5.92,5.92,0,0,1,72,80.3l-5.76,1.24a5.91,5.91,0,0,0-4.66,6l.24,5.9a5.92,5.92,0,0,1-3.53,5.64l-5.39,2.38a5.91,5.91,0,0,0-3.35,6.84l1.41,5.73a5.87,5.87,0,0,1-2.31,6.24l-4.8,3.42a5.9,5.9,0,0,0-1.91,7.37l2.54,5.32a5.89,5.89,0,0,1-1,6.58l-4,4.31A5.92,5.92,0,0,0,39,154.9l3.56,4.7a5.9,5.9,0,0,1,.34,6.65l-3.07,5A5.9,5.9,0,0,0,41,178.81l4.44,3.89a5.91,5.91,0,0,1,1.67,6.44l-2,5.56a5.92,5.92,0,0,0,2.65,7.14l5.13,2.92a5.88,5.88,0,0,1,2.93,6L55,216.57A5.91,5.91,0,0,0,59,223l5.61,1.82a5.91,5.91,0,0,1,4.08,5.27l.36,5.89a5.9,5.9,0,0,0,5.24,5.51l5.87.66a5.9,5.9,0,0,1,5,4.34l1.54,5.7A5.91,5.91,0,0,0,93,256.56L98.9,256a5.93,5.93,0,0,1,5.82,3.24l2.65,5.27a5.92,5.92,0,0,0,7,3l5.65-1.71a5.89,5.89,0,0,1,6.35,2l3.66,4.63a5.91,5.91,0,0,0,7.46,1.53l5.18-2.81a5.93,5.93,0,0,1,6.63.67l4.51,3.8a5.91,5.91,0,0,0,7.61,0l4.52-3.8a5.91,5.91,0,0,1,6.62-.67l5.19,2.81a5.91,5.91,0,0,0,7.46-1.53l3.66-4.63a5.89,5.89,0,0,1,6.35-2l5.65,1.71a5.92,5.92,0,0,0,7-3l2.65-5.27a5.9,5.9,0,0,1,5.82-3.24l5.88.54a5.91,5.91,0,0,0,6.25-4.35l1.53-5.69a5.91,5.91,0,0,1,5.05-4.34l5.87-.66a5.9,5.9,0,0,0,5.24-5.51l.36-5.89a5.9,5.9,0,0,1,4.07-5.27l5.62-1.82a5.91,5.91,0,0,0,4-6.46l-.83-5.84a5.88,5.88,0,0,1,2.93-6l5.13-2.92a5.92,5.92,0,0,0,2.64-7.14l-2-5.56a5.91,5.91,0,0,1,1.67-6.44l4.44-3.88a5.92,5.92,0,0,0,1.15-7.53l-3.07-5a5.92,5.92,0,0,1,.33-6.65l3.57-4.7a5.91,5.91,0,0,0-.39-7.61Zm-97.95,91.7H144.07V117.88l-28.43,16.84V106.94l30.84-18.15h27.34Z"/></svg>