<?xml version="1.0" encoding="utf-8"?>
<!-- Generator: Adobe Illustrator 24.1.3, SVG Export Plug-In . SVG Version: 6.00 Build 0)  -->
<svg version="1.0" id="artwork" xmlns="http://www.w3.org/2000/svg" xmlns:xlink="http://www.w3.org/1999/xlink" x="0px" y="0px"
	 viewBox="0 0 109.75 109.74" style="enable-background:new 0 0 109.75 109.74;" xml:space="preserve">
<style type="text/css">
	.st0{fill:none;}
	.st1{fill:#33A544;}
</style>
<g id="grid_logo">
</g>
<g>
	<rect class="st0" width="109.75" height="109.74"/>
</g>
<g>
	<path class="st1" d="M86.06,55.41c-1.76-2.85-4.21-4.61-6.91-4.61c-0.75,0-1.47,0.15-2.17,0.4l-6.62,1.06L86.06,55.41z"/>
	<polygon class="st1" points="105.58,61.38 64.7,53.15 28.18,58.97 69.62,67.31 	"/>
</g>
<g>
	<path class="st1" d="M88.85,66.16l-18.91,3.12l-0.36,0.06l-0.36-0.07l-46.69-9.4l-8.39,1.34c-0.08,0-0.17-0.01-0.25-0.01
		c-5.36,0-9.71,6.93-9.71,15.48c0,8.55,4.35,15.49,9.71,15.49c0.73,0,1.54-0.14,2.39-0.38l62.87-10.02c5.36,0,9.71-6.93,9.71-15.49
		C88.86,66.24,88.85,66.2,88.85,66.16z M13.89,88.97c-3.08,0-6.51-5.04-6.51-12.28c0-7.24,3.43-12.28,6.51-12.28
		c2.75,0,5.44,3.86,6.25,8.97c0.17,1.07,0.26,2.19,0.26,3.31C20.39,83.92,16.96,88.97,13.89,88.97z"/>
	<path class="st1" d="M79.15,17.57c-0.75,0-1.47,0.15-2.17,0.4L14.14,27.99c-0.08,0-0.17-0.01-0.25-0.01
		c-5.36,0-9.71,6.93-9.71,15.49c0,8.55,4.35,15.49,9.71,15.49c0.73,0,1.54-0.14,2.39-0.38l62.87-10.02c5.36,0,9.71-6.93,9.71-15.49
		C88.86,24.5,84.51,17.57,79.15,17.57z M13.89,55.74c-3.08,0-6.51-5.04-6.51-12.28c0-7.24,3.43-12.28,6.51-12.28
		c2.75,0,5.44,3.86,6.25,8.97c0.17,1.07,0.26,2.19,0.26,3.31C20.39,50.7,16.96,55.74,13.89,55.74z"/>
</g>
</svg>
