<svg id="Layer_1" data-name="Layer 1" xmlns="http://www.w3.org/2000/svg" viewBox="0 0 145 72"><defs><style>.cls-1{fill:#aabc38;}.cls-2{fill:#231f20;}.cls-3{fill:#010101;}.cls-4{fill:#fff;}</style></defs><path class="cls-1" d="M44.48,36.6a16,16,0,1,1-15.88-16A16,16,0,0,1,44.48,36.6Z"/><path class="cls-1" d="M62.45,39.43a7.33,7.33,0,0,1-3,3.56,6.73,6.73,0,0,1-9.89-4.73,6.87,6.87,0,0,1,5.28-7.91,6.68,6.68,0,0,1,8,5.32,8.37,8.37,0,0,1,.13,2.06c0,.38-.15.48-.52.48-2.87,0-5.73,0-8.6,0-.61,0-.61,0-.4.57a3,3,0,0,0,4.79,1,1.24,1.24,0,0,1,1-.4C60.23,39.44,61.31,39.43,62.45,39.43Z"/><path class="cls-2" d="M88.29,43.83a6.8,6.8,0,1,1,6.92-6.76A6.69,6.69,0,0,1,88.29,43.83Z"/><path class="cls-1" d="M67,32a6.13,6.13,0,0,1,.82-.94,4.24,4.24,0,0,1,3.7-.76,4.15,4.15,0,0,1,3.74,4.42c.07,2.8,0,5.59,0,8.39,0,.26-.09.33-.33.33-1,0-2.06,0-3.09,0-.34,0-.44-.1-.44-.44,0-2.17,0-4.34,0-6.51a5.12,5.12,0,0,0-.11-1.29,1.63,1.63,0,0,0-1.57-1.39c-1.17-.09-1.91.26-2.25,1.09a3.57,3.57,0,0,0-.24,1.37c0,2.22,0,4.44,0,6.65,0,.39-.08.53-.5.52-1,0-2,0-2.94,0-.3,0-.42-.07-.42-.41q0-6,0-12c0-.32.09-.41.41-.41.93,0,1.86,0,2.8,0,.29,0,.41.07.38.38S67,31.61,67,32Z"/><path class="cls-2" d="M118.14,42.1a4.24,4.24,0,0,1-5.2,1.46,4.49,4.49,0,0,1-3-4.18c-.07-2.81,0-5.63,0-8.44,0-.29.14-.29.35-.29,1,0,2.06,0,3.09,0,.33,0,.4.1.4.41,0,2.15,0,4.3,0,6.46a8,8,0,0,0,.07,1.1,1.65,1.65,0,0,0,1.55,1.63,2,2,0,0,0,2.32-1,3.59,3.59,0,0,0,.3-1.65c0-2.13,0-4.27,0-6.41,0-.4.1-.51.5-.5,1,0,2,0,3,0,.29,0,.41,0,.41.38,0,4,0,8,0,12,0,.3,0,.42-.38.41q-1.42,0-2.85,0c-.32,0-.43-.09-.4-.41S118.14,42.49,118.14,42.1Z"/><path class="cls-2" d="M109.22,35.58h-3.59a.37.37,0,0,1-.38-.22A3.07,3.07,0,0,0,101.44,34a3.25,3.25,0,0,0-1.85,3.61,3,3,0,0,0,5.62,1.23.48.48,0,0,1,.46-.25c1.07,0,2.13,0,3.19,0,.34,0,.4.07.3.4a6.85,6.85,0,0,1-6.76,4.88,6.85,6.85,0,0,1-3.64-12.56,6.93,6.93,0,0,1,10.41,4C109.19,35.36,109.2,35.45,109.22,35.58Z"/><path class="cls-2" d="M124.18,39.63h1.54c.21,0,.34,0,.42.27a1.54,1.54,0,0,0,2.44.52.92.92,0,0,0,0-1.3,2.09,2.09,0,0,0-.9-.55l-2.13-.77a7.46,7.46,0,0,1-1.43-.67,3.28,3.28,0,0,1-.84-5.13,5.16,5.16,0,0,1,4.25-1.78,5.42,5.42,0,0,1,2.43.54,4.07,4.07,0,0,1,2.3,3.18c0,.24,0,.31-.26.3-1.06,0-2.12,0-3.18,0-.19,0-.29,0-.33-.24-.13-.83-1.53-.93-2-.38a.79.79,0,0,0,.14,1.18,3.52,3.52,0,0,0,1.22.58c.79.25,1.6.45,2.38.77a3.44,3.44,0,0,1,2.48,3A3.82,3.82,0,0,1,130.72,43a6.18,6.18,0,0,1-6.09.22,4.22,4.22,0,0,1-2.34-3.28c0-.23,0-.31.24-.31C123.08,39.64,123.63,39.63,124.18,39.63Z"/><path class="cls-2" d="M76.2,38.4q0-3.37,0-6.74c0-.63,0-1.26,0-1.88a3.41,3.41,0,0,1,3.06-3.56,13.75,13.75,0,0,1,2-.16c.26,0,.37.05.36.34q0,1.11,0,2.22c0,.29-.1.32-.35.34-1,.07-1.3.43-1.27,1.42,0,.21.06.28.27.27s.68,0,1,0,.35,0,.34.3c0,.77,0,1.54,0,2.31,0,.24-.06.31-.3.3s-.61,0-.91,0-.43.09-.43.43c0,2.42,0,4.85,0,7.28,0,.61,0,1.22,0,1.83,0,.27-.08.35-.35.35-1,0-2.06,0-3.09,0-.34,0-.39-.12-.39-.41,0-1.54,0-3.09,0-4.63Z"/><path class="cls-3" d="M28.86,23.64a11.74,11.74,0,0,1,10.25,6c.15.25.11.34-.16.46q-4.7,2-9.37,4.08c-.28.12-.37.06-.49-.2q-2-4.69-4.08-9.36c-.11-.24-.1-.34.18-.43A12.25,12.25,0,0,1,28.86,23.64Z"/><path class="cls-4" d="M17.05,36.7a11.68,11.68,0,0,1,6-10.19c.22-.13.33-.14.45.13,1.34,3.12,2.71,6.24,4.07,9.35.11.25.11.35-.17.47q-4.68,2-9.36,4.07c-.26.11-.34.07-.42-.19A12.1,12.1,0,0,1,17.05,36.7Z"/><path class="cls-4" d="M39.89,36.45a11.66,11.66,0,0,1-6,10.21c-.22.13-.32.13-.43-.13q-2-4.71-4.1-9.4c-.1-.22-.07-.3.15-.4q4.71-2,9.41-4.1c.25-.11.33-.06.41.19A12.36,12.36,0,0,1,39.89,36.45Z"/><path class="cls-4" d="M28.59,48A11.67,11.67,0,0,1,18.4,42c-.16-.26-.17-.38.16-.51q4.65-2,9.28-4c.26-.11.37-.11.5.18q2,4.66,4.06,9.31c.12.26.09.36-.2.45A12.27,12.27,0,0,1,28.59,48Z"/><path class="cls-4" d="M56.15,35.61c-.84,0-1.67,0-2.51,0-.33,0-.38-.09-.27-.39a3.07,3.07,0,0,1,5.58,0c.1.27.06.37-.25.37C57.85,35.6,57,35.61,56.15,35.61Z"/><path class="cls-4" d="M91.37,37a3.06,3.06,0,1,1-3.08-3.21A3.12,3.12,0,0,1,91.37,37Z"/></svg>