<svg id="Layer_1" data-name="Layer 1" xmlns="http://www.w3.org/2000/svg" viewBox="0 0 145 72"><defs><style>.hubspot-cls-1{fill:#46545f;}.hubspot-cls-2{fill:#f47622;}</style></defs><path class="hubspot-cls-1" d="M36.8,29.51h2.49V35h5.25V29.51H47V43.09H44.54V37.44H39.29v5.65H36.8Zm18.12,9.15a2.07,2.07,0,1,1-4.13,0V32.82H48.43v5.84a4.43,4.43,0,1,0,8.85,0V32.82H54.92v5.84m8.95-5.77A3.65,3.65,0,0,0,61.09,34V29.51H58.72v8.32a5,5,0,0,0,4.79,5.26A5.19,5.19,0,0,0,68.79,38a5,5,0,0,0-4.92-5.1Zm.06,8a2.91,2.91,0,0,1,0-5.81,2.92,2.92,0,0,1,0,5.81Zm8.84-7.41a1.46,1.46,0,0,1,1.66-1.57,3.52,3.52,0,0,1,2.23,1.18l1.55-1.82a4.89,4.89,0,0,0-3.63-1.75c-2.57,0-4.42,1.49-4.42,4,0,4.59,5.65,3.14,5.65,5.71a1.62,1.62,0,0,1-1.66,1.49,2.92,2.92,0,0,1-2.5-1.4l-1.71,1.78a5.06,5.06,0,0,0,4.08,2c2.43,0,4.4-1.51,4.4-3.87,0-5.1-5.65-3.52-5.65-5.73m11.88-.73A5,5,0,0,0,79.87,38v8.35h2.37V41.84A3.63,3.63,0,0,0,85,43a5,5,0,0,0,4.92-5.1,5.19,5.19,0,0,0-5.28-5.1Zm.42,8a2.91,2.91,0,0,1,0-5.82,2.93,2.93,0,0,1,0,5.82Zm22.3.13c-1.4,0-1.79-.6-1.79-1.53V35.27h2.17V33.19h-2.17V30.45l-2.4,1.08v8.34c0,2.14,1.47,3.22,3.49,3.22a4.61,4.61,0,0,0,1-.08l.58-2.15c-.26,0-.56,0-.83,0"/><path class="hubspot-cls-2" d="M101.12,35.39a5.31,5.31,0,0,0-3.8-2.55V30.36a1.82,1.82,0,0,0,1.13-1.71,1.89,1.89,0,1,0-3.77,0,1.81,1.81,0,0,0,1.1,1.71v2.49a5.42,5.42,0,0,0-1.66.52l-6.69-5.08a2,2,0,0,0,.09-.55,2.09,2.09,0,1,0-2.09,2.09,2,2,0,0,0,1.07-.31l.44.33,6,4.33a5.41,5.41,0,0,0-.85,1,4.66,4.66,0,0,0-.77,2.51v.19a5.13,5.13,0,0,0,.33,1.8A4.54,4.54,0,0,0,92.43,41l-2,2a1.62,1.62,0,0,0-1.7.37,1.55,1.55,0,0,0-.47,1.14,1.59,1.59,0,0,0,.47,1.15,1.61,1.61,0,0,0,2.68-1.63L93.48,42a4.79,4.79,0,0,0,.92.5,5.32,5.32,0,0,0,2.14.45h.14A5.16,5.16,0,0,0,101,40.52a4.72,4.72,0,0,0,.74-2.55v0a4.94,4.94,0,0,0-.66-2.54Zm-2.51,4.32a2.62,2.62,0,0,1-1.93,1h-.12a2.62,2.62,0,0,1-1.22-.32,2.75,2.75,0,0,1-1.06-1,2.29,2.29,0,0,1-.45-1.33V38a2.79,2.79,0,0,1,.31-1.32,2.88,2.88,0,0,1,1-1.08,2.41,2.41,0,0,1,1.37-.42h0a2.72,2.72,0,0,1,1.29.3,2.66,2.66,0,0,1,1,.92,2.91,2.91,0,0,1,.46,1.3c0,.1,0,.2,0,.3a2.62,2.62,0,0,1-.73,1.76Z"/></svg>