<svg id="Layer_1" data-name="Layer 1" xmlns="http://www.w3.org/2000/svg" xmlns:xlink="http://www.w3.org/1999/xlink" viewBox="0 0 145 72"><defs><style>.cls-1{fill:none;}.cls-2{clip-path:url(#clip-path);}.cls-3{fill:url(#linear-gradient);}.cls-4{clip-path:url(#clip-path-2);}.cls-5{fill:url(#linear-gradient-2);}.cls-6{clip-path:url(#clip-path-3);}.cls-7{fill:url(#radial-gradient);}.cls-8{fill:#d1d3d4;}.cls-8,.cls-9{fill-rule:evenodd;}.cls-9{fill:#bcbec0;}.cls-10{clip-path:url(#clip-path-4);}.cls-11{fill:url(#linear-gradient-3);}.cls-12{fill:#21323c;}</style><clipPath id="clip-path"><path class="cls-1" d="M38.53,19.76a10.34,10.34,0,0,0-5.87,1.85,9.9,9.9,0,0,0-2,1.83,4.71,4.71,0,0,1,7.37.7,2.52,2.52,0,0,1,.15.24c.57,1,1,2,1.56,3a5.31,5.31,0,0,0,2,2.43,3.93,3.93,0,0,0,5.9-3.41,3.94,3.94,0,0,0-.54-2,9.39,9.39,0,0,0-2.8-2.85,10.3,10.3,0,0,0-5.76-1.78Z"/></clipPath><linearGradient id="linear-gradient" x1="428.19" y1="386.45" x2="428.74" y2="386.45" gradientTransform="matrix(0, 14.62, 14.62, 0, -5609.17, -6238.99)" gradientUnits="userSpaceOnUse"><stop offset="0" stop-color="#82d4f7"/><stop offset="0.1" stop-color="#72cff5"/><stop offset="0.36" stop-color="#4fc4f0"/><stop offset="0.6" stop-color="#36bced"/><stop offset="0.82" stop-color="#26b8eb"/><stop offset="1" stop-color="#21b6ea"/></linearGradient><clipPath id="clip-path-2"><path class="cls-1" d="M30.68,23.44a10.23,10.23,0,0,0-.55,12.44,10.62,10.62,0,0,0,1.81,2,10.14,10.14,0,0,0,2.89,1.7,15,15,0,0,0,3.74.79l.61.06c1.44.15,2.87.27,4.31.4.71.06,1.43.13,2.13.21a13,13,0,0,1,2,.26,2.65,2.65,0,0,1,1.49.72,2.4,2.4,0,0,1,.41,2.64A2.36,2.36,0,0,1,45,43.26a6.3,6.3,0,0,0,12.15,3.29c0-.08.06-.19.08-.26a2.56,2.56,0,0,0,.07-.27l.08-.37a10.08,10.08,0,0,0,.2-1.74,10.24,10.24,0,0,0-6.51-9.83,14.87,14.87,0,0,0-3.73-.8c-1.18-.13-2.37-.24-3.55-.34A46.47,46.47,0,0,1,38,32.32a2.37,2.37,0,1,1,2.45-3.68,11.08,11.08,0,0,1-.73-1.27c-.51-1-1-2-1.56-3a2.52,2.52,0,0,0-.15-.24,4.71,4.71,0,0,0-7.37-.7"/></clipPath><linearGradient id="linear-gradient-2" x1="491.11" y1="455.41" x2="491.66" y2="455.41" gradientTransform="matrix(0, -19.34, -19.34, 0, 8848.95, 9548.29)" gradientUnits="userSpaceOnUse"><stop offset="0" stop-color="#386fb7"/><stop offset="0.14" stop-color="#366bb1"/><stop offset="0.31" stop-color="#3061a2"/><stop offset="0.5" stop-color="#28528a"/><stop offset="1" stop-color="#001e44"/></linearGradient><clipPath id="clip-path-3"><path class="cls-1" d="M30.68,23.44a10.23,10.23,0,0,0-.55,12.44,10.62,10.62,0,0,0,1.81,2,10.14,10.14,0,0,0,2.89,1.7,15,15,0,0,0,3.74.79l.61.06c1.44.15,2.87.27,4.31.4l.32-7.87A46.47,46.47,0,0,1,38,32.32a2.37,2.37,0,1,1,2.45-3.68,11.08,11.08,0,0,1-.73-1.27c-.51-1-1-2-1.56-3a2.52,2.52,0,0,0-.15-.24,4.71,4.71,0,0,0-7.37-.7"/></clipPath><radialGradient id="radial-gradient" cx="435.47" cy="474.05" r="1.53" gradientTransform="matrix(16.04, 0, 0, -16.04, -6954.2, 7645.3)" gradientUnits="userSpaceOnUse"><stop offset="0" stop-color="#386fb7"/><stop offset="0.46" stop-color="#2a558f"/><stop offset="0.81" stop-color="#0e2e57"/><stop offset="1" stop-color="#001e44"/></radialGradient><clipPath id="clip-path-4"><path class="cls-1" d="M42.05,32a6,6,0,0,0-1.94,2.24,22.47,22.47,0,0,0-1.65,3.51c-1.11,2.92-1.85,5.95-.86,9a10.26,10.26,0,0,0,19,1.26,9.42,9.42,0,0,0,.57-1.5,6.31,6.31,0,0,1-7.46,4.13A6.31,6.31,0,0,1,45,45.54a10,10,0,0,1,.8-4.81c.56-1.64,1.13-3.27,1.69-4.91a22.18,22.18,0,0,0,1.27-4.66A13.23,13.23,0,0,0,46.43,31,8.73,8.73,0,0,0,42.05,32"/></clipPath><linearGradient id="linear-gradient-3" x1="449.19" y1="414.93" x2="449.74" y2="414.93" gradientTransform="matrix(0, 34.29, 34.29, 0, -14180.76, -15368.86)" gradientUnits="userSpaceOnUse"><stop offset="0" stop-color="#00b3e9"/><stop offset="0.71" stop-color="#386fb7"/><stop offset="1" stop-color="#001b41"/></linearGradient></defs><g class="cls-2"><rect class="cls-3" x="29.11" y="16.12" width="20.1" height="18.08" transform="translate(-7.37 24.26) rotate(-31.61)"/></g><g class="cls-4"><rect class="cls-5" x="24.75" y="18.64" width="35.58" height="36.16" transform="translate(-2.9 69.78) rotate(-76.84)"/></g><g class="cls-6"><rect class="cls-7" x="23.16" y="18.94" width="24.9" height="24.9" transform="translate(-11.77 34.38) rotate(-45)"/></g><path class="cls-8" d="M36.51,40.05l-.12,0h0l.12,0"/><path class="cls-8" d="M45.06,43v0l0,.06h0l0-.1"/><path class="cls-9" d="M47.1,28.39a3.64,3.64,0,0,0,.3-.63,2.29,2.29,0,0,1-.3.63"/><g class="cls-10"><rect class="cls-11" x="34.6" y="29.31" width="24.58" height="27.65" transform="translate(-6.95 9.07) rotate(-10.29)"/></g><path class="cls-12" d="M60.72,21.09l.63-.08.47,0a3.33,3.33,0,0,1,.7.07,1.72,1.72,0,0,1,.66.26,1.51,1.51,0,0,1,.49.54,1.87,1.87,0,0,1,.2.92v13.7H60.72Z"/><path class="cls-12" d="M69.75,36.47H66.6V25.6l.28-.05.32,0h.44a2.8,2.8,0,0,1,1.27.26,1.26,1.26,0,0,1,.68.93,3.78,3.78,0,0,1,1.19-1A4.65,4.65,0,0,1,73,25.28a3.73,3.73,0,0,1,2.41.64,2.94,2.94,0,0,1,1,1.7,6.67,6.67,0,0,1,.15,1.15c0,.41,0,.82,0,1.22v6.48H73.45V30.13c0-.34,0-.65,0-.95a2.16,2.16,0,0,0-.19-.74,1.08,1.08,0,0,0-.48-.49,2.11,2.11,0,0,0-.93-.17,2.82,2.82,0,0,0-1.46.36,1,1,0,0,0-.61.88Z"/><path class="cls-12" d="M86.22,23a1.22,1.22,0,0,0-.63-.44,3.88,3.88,0,0,0-1.31-.18,2,2,0,0,0-1.39.46,2,2,0,0,0-.52,1.57v1.08h3.68V27.9H82.37v8.57h-3.1V24.54a4.56,4.56,0,0,1,1.16-3.39A4.56,4.56,0,0,1,83.82,20a7.81,7.81,0,0,1,1.66.18,3.15,3.15,0,0,1,1,.38c.39.24.57.45.57.85a1.61,1.61,0,0,1-.28.78,6.59,6.59,0,0,1-.6.86"/><path class="cls-12" d="M91.55,21.92a1.53,1.53,0,0,1-.49,1.19,1.68,1.68,0,0,1-1.19.46,1.64,1.64,0,0,1-1.19-.46,1.56,1.56,0,0,1-.48-1.19,1.64,1.64,0,0,1,.48-1.21,1.65,1.65,0,0,1,1.19-.47,1.69,1.69,0,0,1,1.19.47,1.61,1.61,0,0,1,.49,1.21m0,14.69a1.54,1.54,0,0,1-.41.07c-.22,0-.45,0-.69,0A2.49,2.49,0,0,1,89,36.32a1.71,1.71,0,0,1-.57-1.53V25.6a1.43,1.43,0,0,1,.37-.06q.33,0,.69,0a4.62,4.62,0,0,1,.74.06,1.92,1.92,0,0,1,.66.27,1.46,1.46,0,0,1,.49.55,2.08,2.08,0,0,1,.18.93Z"/><path class="cls-12" d="M104,35.62a11,11,0,0,1-.26,2.47,4.64,4.64,0,0,1-.92,1.92,4.33,4.33,0,0,1-1.74,1.25,7.3,7.3,0,0,1-2.71.43,10.73,10.73,0,0,1-2.26-.2A5.48,5.48,0,0,1,94.72,41a1.36,1.36,0,0,1-.59-.53,1.31,1.31,0,0,1-.12-.53,1.74,1.74,0,0,1,.3-.86,9.81,9.81,0,0,1,.6-.89,3.12,3.12,0,0,0,.44.37,4.61,4.61,0,0,0,.71.4,5,5,0,0,0,.93.34,4.43,4.43,0,0,0,1.13.14,3.55,3.55,0,0,0,1.46-.25,2.06,2.06,0,0,0,.89-.69,2.84,2.84,0,0,0,.45-1.09,8.09,8.09,0,0,0,.12-1.47v-.41a2.84,2.84,0,0,1-1,.72,4.26,4.26,0,0,1-1.8.33,5.09,5.09,0,0,1-1.65-.26,3.46,3.46,0,0,1-1.41-.91,4.42,4.42,0,0,1-1-1.69,7.8,7.8,0,0,1-.37-2.61,8.42,8.42,0,0,1,.38-2.69,5.19,5.19,0,0,1,1-1.8,3.64,3.64,0,0,1,1.45-1,4.75,4.75,0,0,1,1.71-.31,3.6,3.6,0,0,1,1.69.34,2.86,2.86,0,0,1,1,.87,1.22,1.22,0,0,1,.69-.75,2.66,2.66,0,0,1,1.17-.23h.39a3.7,3.7,0,0,1,.37,0l.34.05Zm-7-4.71a5.6,5.6,0,0,0,.48,2.54,1.87,1.87,0,0,0,1.82.93,2.17,2.17,0,0,0,1.26-.31.94.94,0,0,0,.46-.82V28.33a3.14,3.14,0,0,0-.63-.43,2.08,2.08,0,0,0-1-.26c-1.57,0-2.35,1.09-2.35,3.27"/><path class="cls-12" d="M116.72,31a8.4,8.4,0,0,1-.29,2.2,4.93,4.93,0,0,1-.94,1.87,4.76,4.76,0,0,1-1.69,1.28,5.79,5.79,0,0,1-2.51.49,6,6,0,0,1-2.49-.47,4.66,4.66,0,0,1-1.67-1.27,5.09,5.09,0,0,1-.94-1.84,7.93,7.93,0,0,1-.3-2.19,6.75,6.75,0,0,1,.35-2.22,5.25,5.25,0,0,1,1-1.84A4.63,4.63,0,0,1,109,25.74a5.87,5.87,0,0,1,2.42-.46,6,6,0,0,1,2.47.46A4.34,4.34,0,0,1,115.51,27a4.92,4.92,0,0,1,.92,1.81,8.21,8.21,0,0,1,.29,2.19m-3.15,0a8.48,8.48,0,0,0-.09-1.23,3.14,3.14,0,0,0-.35-1.07,2.25,2.25,0,0,0-.69-.75,2.27,2.27,0,0,0-2.22,0,2.28,2.28,0,0,0-.71.77,3.76,3.76,0,0,0-.38,1.07A6.89,6.89,0,0,0,109,31a7.53,7.53,0,0,0,.1,1.25,3.81,3.81,0,0,0,.36,1.11,2.06,2.06,0,0,0,.7.79,2,2,0,0,0,1.11.3,2,2,0,0,0,1.14-.3,2.06,2.06,0,0,0,.7-.79,3.52,3.52,0,0,0,.35-1.11,8.93,8.93,0,0,0,.09-1.27"/><path class="cls-12" d="M66.05,42.61a3.24,3.24,0,0,0-.82-.45A3.3,3.3,0,0,0,64,42a2.48,2.48,0,0,0-.88.13,1.43,1.43,0,0,0-.57.33,1.13,1.13,0,0,0-.32.48,1.63,1.63,0,0,0-.1.57,1.29,1.29,0,0,0,.15.64,1.53,1.53,0,0,0,.44.48,3.68,3.68,0,0,0,.69.37c.27.11.59.22.94.33a7.07,7.07,0,0,1,1,.4,3.36,3.36,0,0,1,.85.58,2.75,2.75,0,0,1,.58.83A2.81,2.81,0,0,1,67,48.22a3.38,3.38,0,0,1-.24,1.32,2.57,2.57,0,0,1-.71,1A3,3,0,0,1,65,51.1a4.65,4.65,0,0,1-1.38.19,6.4,6.4,0,0,1-1.55-.18,3.25,3.25,0,0,1-1.12-.48.69.69,0,0,1-.38-.56,1,1,0,0,1,.14-.42,3.08,3.08,0,0,1,.32-.48,4.72,4.72,0,0,0,1.15.68,3.51,3.51,0,0,0,1.44.3,2.77,2.77,0,0,0,1-.15,1.66,1.66,0,0,0,.62-.4,1.37,1.37,0,0,0,.34-.55,2,2,0,0,0,.11-.64,2,2,0,0,0-.13-.74,1.47,1.47,0,0,0-.38-.54,2.46,2.46,0,0,0-.62-.4,8.29,8.29,0,0,0-.86-.32A11.2,11.2,0,0,1,62.59,46a3.4,3.4,0,0,1-.91-.53,2.35,2.35,0,0,1-.64-.79,2.52,2.52,0,0,1-.25-1.16,2.86,2.86,0,0,1,.25-1.2,2.62,2.62,0,0,1,.68-.86,3.09,3.09,0,0,1,1-.53A4.35,4.35,0,0,1,64,40.79a5.91,5.91,0,0,1,1.2.14,3.87,3.87,0,0,1,1.09.42,1.94,1.94,0,0,1,.41.32.57.57,0,0,1,.16.4.67.67,0,0,1-.14.39,3.24,3.24,0,0,1-.35.42l-.15-.13-.19-.14"/><path class="cls-12" d="M75.1,47.49a5.6,5.6,0,0,1-.18,1.43,3.32,3.32,0,0,1-.58,1.21,3.07,3.07,0,0,1-1,.85,3.44,3.44,0,0,1-1.54.31,3.52,3.52,0,0,1-1.52-.3,2.74,2.74,0,0,1-1-.81A3.08,3.08,0,0,1,68.65,49a5.65,5.65,0,0,1-.18-1.45,4.8,4.8,0,0,1,.21-1.43,3.34,3.34,0,0,1,.64-1.19,3.18,3.18,0,0,1,1-.8,3.38,3.38,0,0,1,1.47-.3,3.46,3.46,0,0,1,1.5.3,2.82,2.82,0,0,1,1,.8,3.36,3.36,0,0,1,.57,1.17,5.37,5.37,0,0,1,.18,1.4m-1.35,0a4.88,4.88,0,0,0-.09-.93,2.56,2.56,0,0,0-.29-.83,1.67,1.67,0,0,0-.59-.59,1.88,1.88,0,0,0-2.55.59,2.86,2.86,0,0,0-.32.83,4.9,4.9,0,0,0-.1.93,5,5,0,0,0,.09.94,2.49,2.49,0,0,0,.3.87,2.07,2.07,0,0,0,.61.64,1.75,1.75,0,0,0,1,.25,1.9,1.9,0,0,0,1-.25,1.8,1.8,0,0,0,.6-.63,2.7,2.7,0,0,0,.29-.87,5.17,5.17,0,0,0,.09-1"/><path class="cls-12" d="M76.72,43.2A3.12,3.12,0,0,1,77.4,41a2.53,2.53,0,0,1,2-.74,3.24,3.24,0,0,1,.85.11,2.86,2.86,0,0,1,.67.25,1.39,1.39,0,0,1,.43.33.49.49,0,0,1,.15.32.75.75,0,0,1-.12.42,3.27,3.27,0,0,1-.25.36h-.2a2,2,0,0,0-.62-.5,1.79,1.79,0,0,0-.84-.19,1.42,1.42,0,0,0-1.05.37A1.71,1.71,0,0,0,78,43v1h2.53v1.1H78v6H76.72Z"/><path class="cls-12" d="M82.25,41.81h.27a1.1,1.1,0,0,1,.73.22,1,1,0,0,1,.28.8V44h2.25v1.09H83.53V49c0,.82.33,1.23,1,1.23a1.44,1.44,0,0,0,.46-.08,2.28,2.28,0,0,0,.38-.2,1.36,1.36,0,0,0,.28-.22,1.07,1.07,0,0,0,.13-.15,3.58,3.58,0,0,1,.31.44.76.76,0,0,1,.13.41.44.44,0,0,1-.13.29,1.74,1.74,0,0,1-.38.3,2.44,2.44,0,0,1-.6.22,3.07,3.07,0,0,1-.77.09,2.27,2.27,0,0,1-1.25-.3,1.66,1.66,0,0,1-.67-.83,2.07,2.07,0,0,1-.12-.62c0-.23,0-.45,0-.67Z"/><path class="cls-12" d="M87,44l.32-.07a1.87,1.87,0,0,1,.34,0,.94.94,0,0,1,1,.78l1.56,5,1.44-3.54L90.81,44a2,2,0,0,1,.61-.09.94.94,0,0,1,.93.72l1.81,5.05,1.23-4.78a2.37,2.37,0,0,1,.32-.7.76.76,0,0,1,.65-.29,1.83,1.83,0,0,1,.62.12l-2.16,7.07H93.54l-1.42-3.67-1.55,3.67H89.43Z"/><path class="cls-12" d="M98.56,45.57a2.39,2.39,0,0,1-.2-.43,1,1,0,0,1-.09-.36.47.47,0,0,1,.25-.37,2.75,2.75,0,0,1,.62-.31,5,5,0,0,1,.85-.21,5.79,5.79,0,0,1,.92-.07,4.25,4.25,0,0,1,1.28.16,2,2,0,0,1,.83.5,1.91,1.91,0,0,1,.45.83,4.86,4.86,0,0,1,.12,1.14v3a4.24,4.24,0,0,0,0,.57.59.59,0,0,0,.12.3.36.36,0,0,0,.22.13,1.9,1.9,0,0,0,.37,0v.6a2,2,0,0,1-.33.08,2.73,2.73,0,0,1-.41,0,1.73,1.73,0,0,1-.81-.19.83.83,0,0,1-.41-.67,3.55,3.55,0,0,1-.9.64,3.19,3.19,0,0,1-1.39.26,3.61,3.61,0,0,1-.79-.09,1.89,1.89,0,0,1-.72-.33,1.83,1.83,0,0,1-.54-.65,2.26,2.26,0,0,1-.21-1,2,2,0,0,1,.4-1.28,2.91,2.91,0,0,1,1-.78,4.4,4.4,0,0,1,1.26-.39,11.84,11.84,0,0,1,1.22-.13H102l.32,0V46.3a1.47,1.47,0,0,0-.33-1,1.68,1.68,0,0,0-1.24-.35,3.42,3.42,0,0,0-1.14.17,3.79,3.79,0,0,0-.91.48Zm3.78,1.92h-.43a8.06,8.06,0,0,0-1,.06,4,4,0,0,0-.91.23,1.69,1.69,0,0,0-.66.47,1.16,1.16,0,0,0-.26.77,1.29,1.29,0,0,0,.27.8,1.23,1.23,0,0,0,1,.34,2.61,2.61,0,0,0,.75-.11,3.32,3.32,0,0,0,.63-.28,1.52,1.52,0,0,0,.42-.36.59.59,0,0,0,.16-.38Z"/><path class="cls-12" d="M105.82,44h.27a1.18,1.18,0,0,1,.62.17.77.77,0,0,1,.34.58,2.05,2.05,0,0,1,.64-.59,1.68,1.68,0,0,1,1-.28l.36,0a1.4,1.4,0,0,1,.35.1.64.64,0,0,1,.27.18.48.48,0,0,1,.11.32,1.34,1.34,0,0,1-.12.52,2.76,2.76,0,0,1-.24.46,1.62,1.62,0,0,0-.42-.28,1.59,1.59,0,0,0-.58-.1,1.37,1.37,0,0,0-.49.09,1.47,1.47,0,0,0-.41.22,1.28,1.28,0,0,0-.29.33.71.71,0,0,0-.1.37v5h-1.28Z"/><path class="cls-12" d="M111.91,47.77a3,3,0,0,0,.58,1.77,2,2,0,0,0,1.65.67,3,3,0,0,0,.76-.09,3.09,3.09,0,0,0,.57-.22,2.16,2.16,0,0,0,.4-.28l.26-.27a2.66,2.66,0,0,1,.29.45.85.85,0,0,1,.13.38.5.5,0,0,1-.07.25,1.06,1.06,0,0,1-.26.26,3.21,3.21,0,0,1-.89.43,4.53,4.53,0,0,1-1.31.17,4.46,4.46,0,0,1-1.33-.2,2.83,2.83,0,0,1-1.09-.66,3,3,0,0,1-.74-1.18,5.19,5.19,0,0,1-.27-1.79,4.51,4.51,0,0,1,.27-1.64,3.31,3.31,0,0,1,.74-1.14,2.86,2.86,0,0,1,1-.65,3.44,3.44,0,0,1,1.2-.21,3.06,3.06,0,0,1,1.31.25,2.41,2.41,0,0,1,.9.69,2.91,2.91,0,0,1,.51,1,4.19,4.19,0,0,1,.17,1.17c0,.14,0,.29,0,.43a2.72,2.72,0,0,1,0,.42Zm3.53-1a3.52,3.52,0,0,0-.08-.75,1.71,1.71,0,0,0-.28-.61,1.34,1.34,0,0,0-.52-.42,1.89,1.89,0,0,0-.79-.15,1.72,1.72,0,0,0-1.29.51,2.16,2.16,0,0,0-.57,1.42Z"/></svg>