<svg id="Layer_1" data-name="Layer 1" xmlns="http://www.w3.org/2000/svg" viewBox="0 0 145 72"><defs><style>.ultitech-cls-1{fill:#f05323;}.ultitech-cls-2{fill:#f05423;}.ultitech-cls-3{fill:#f15624;}.ultitech-cls-4{fill:#f05523;}.ultitech-cls-5{fill:#f15826;}.ultitech-cls-6{fill:#fff;}</style></defs><path class="ultitech-cls-1" d="M50.49,36A17.54,17.54,0,1,1,33.05,18.47,17.54,17.54,0,0,1,50.49,36Z"/><path class="ultitech-cls-1" d="M90.57,28.66c.33-.18.61-.36.9-.49a2.53,2.53,0,0,1,2.75.33.5.5,0,0,0,.71.05,3.85,3.85,0,0,1,4.34.06,3.25,3.25,0,0,1,1.32,2.76c0,1.5,0,3,0,4.52,0,.38.11.66.51.72.21,0,.22.14.22.31v1.63c0,.21,0,.29-.27.31a2.59,2.59,0,0,1-2.94-2.53c-.07-1.67,0-3.35,0-5a1.06,1.06,0,0,0-.65-1.07,1.23,1.23,0,0,0-1.76,1.25c0,2.25,0,4.5,0,6.75,0,.42-.11.54-.52.51a14.06,14.06,0,0,0-1.59,0c-.34,0-.41-.11-.41-.42,0-2.3,0-4.61,0-6.91a1.23,1.23,0,0,0-1.76-1.19,1.1,1.1,0,0,0-.76,1.15c0,2.29,0,4.57,0,6.86,0,.41-.1.55-.52.52s-1.09,0-1.63,0c-.24,0-.36,0-.36-.32,0-3.34,0-6.69,0-10,0-.24.07-.32.31-.32a14.81,14.81,0,0,0,1.49,0C90.39,28.05,90.68,28.11,90.57,28.66Z"/><path class="ultitech-cls-1" d="M65.94,30.41c0,1.41,0,2.82,0,4.23A4.28,4.28,0,0,1,61.73,39a4.67,4.67,0,0,1-3.86-1.44,4,4,0,0,1-1.1-2.75c0-3,0-6.06,0-9.09,0-.32.07-.44.41-.43.59,0,1.19,0,1.79,0,.4,0,.53.09.53.51,0,2.93,0,5.87,0,8.8A1.86,1.86,0,0,0,62,36.38a1.61,1.61,0,0,0,1.23-1.7c0-2.95,0-5.9,0-8.85,0-.5.15-.62.61-.58a15.88,15.88,0,0,0,1.69,0c.34,0,.45.09.45.44C65.93,27.27,65.94,28.84,65.94,30.41Z"/><path class="ultitech-cls-1" d="M108.24,36.56a3.3,3.3,0,0,0,.61,1.71c.18.23,0,.27-.14.34a3.67,3.67,0,0,1-5.2-2.81,32.88,32.88,0,0,1,0-4.76,3.6,3.6,0,0,1,3.39-3.14,10.56,10.56,0,0,1,4.38.7c.28.1.26.29.26.51,0,2.2,0,4.41,0,6.61,0,.44,0,.84.59.91.16,0,.16.13.16.25,0,.56,0,1.13,0,1.69,0,.22-.09.27-.29.29a2.54,2.54,0,0,1-2.74-1.9,5.21,5.21,0,0,1-.19-1.47c0-1.55,0-3.11,0-4.67,0-.38-.11-.53-.48-.57a3.65,3.65,0,0,0-1.47-.08A1.41,1.41,0,0,0,106,31.59v3.48a1.49,1.49,0,0,0,2,1.55Z"/><path class="ultitech-cls-1" d="M121.72,33.44a23.8,23.8,0,0,1,0-2.39,3.53,3.53,0,0,1,3.1-3.1,3.9,3.9,0,0,1,4,1.4,3.23,3.23,0,0,1-1.19,5c-.76.36-1.57.62-2.35.94-.25.1-.31,0-.3-.23,0-.65,0-1.29,0-1.94,0-.23.09-.32.29-.39l1-.36c.44-.15.78-.35.76-.9a1.32,1.32,0,0,0-.81-1.25,1.5,1.5,0,0,0-2.06,1.36c0,1.29,0,2.58,0,3.87a1.38,1.38,0,0,0,1.57,1.3,8.11,8.11,0,0,0,2.53-.49c.37-.13.41,0,.4.32,0,.56,0,1.12,0,1.69,0,.21-.06.34-.28.39a8.75,8.75,0,0,1-3.84.2,3.54,3.54,0,0,1-2.87-3.6c0-.6,0-1.2,0-1.79Z"/><path class="ultitech-cls-1" d="M75.49,33.45c0-.89,0-1.79,0-2.68,0-.33-.06-.46-.43-.46-1,0-1,0-1-1a.33.33,0,0,1,0-.1c0-.36-.16-.82.07-1.05s.66-.08,1-.06.34-.14.34-.39c0-.68,0-1.36,0-2,0-.28.08-.37.37-.37.59,0,1.19,0,1.78,0,.36,0,.41.13.4.43,0,.65,0,1.3,0,1.94,0,.32.07.44.41.43.51,0,1,0,1.54,0,.36,0,.45.11.43.45a12.89,12.89,0,0,0,0,1.39c0,.3-.08.42-.39.4-.55,0-1.09,0-1.64,0-.25,0-.35.08-.35.34,0,1.77,0,3.55,0,5.32a.58.58,0,0,0,.69.65c.27,0,.33.09.33.34,0,.53,0,1.06,0,1.59,0,.2,0,.29-.26.31a2.76,2.76,0,0,1-3.29-3C75.48,35.08,75.49,34.27,75.49,33.45Z"/><path class="ultitech-cls-1" d="M115.22,33.56c0-.93,0-1.86,0-2.78,0-.33,0-.47-.42-.47-1,0-1,0-1-1,0-.38-.15-.85.07-1.11s.69-.08,1-.07.34-.11.33-.36c0-.67,0-1.35,0-2,0-.34.11-.42.42-.41.58,0,1.16,0,1.74,0,.27,0,.37.07.36.36,0,.68,0,1.36,0,2,0,.29.06.41.38.4.55,0,1.09,0,1.64,0,.27,0,.38.06.37.36a11.53,11.53,0,0,0,0,1.44c0,.33-.07.47-.43.45-.53,0-1.06,0-1.59,0-.28,0-.37.09-.37.37q0,2.61,0,5.22c0,.45.21.73.68.72.31,0,.36.12.35.38,0,.51,0,1,0,1.54,0,.15,0,.29-.21.31-1.69.15-3-.56-3.26-2.12a12.37,12.37,0,0,1-.06-2.28C115.21,34.15,115.22,33.85,115.22,33.56Z"/><path class="ultitech-cls-1" d="M69,31c0-1.73,0-3.47,0-5.21,0-.4.12-.51.51-.49a13.88,13.88,0,0,0,1.58,0c.38,0,.47.1.47.47q0,5,0,9.93c0,.81,0,.82.82,1,.2,0,.2.13.2.27v1.69c0,.13,0,.23-.19.27A2.8,2.8,0,0,1,69.16,37,3.6,3.6,0,0,1,69,35.92Z"/><path class="ultitech-cls-1" d="M82.28,32.42c0-1.31,0-2.61,0-3.92,0-.32.08-.43.41-.42a15.69,15.69,0,0,0,1.68,0c.36,0,.44.09.44.44,0,2.4,0,4.8,0,7.2,0,.74,0,.79.79.9.16,0,.23.07.23.24,0,.58,0,1.16,0,1.73,0,.2-.08.25-.27.26a2.73,2.73,0,0,1-3.28-2.91C82.33,34.77,82.28,33.59,82.28,32.42Z"/><path class="ultitech-cls-1" d="M81.34,44.09c0-.55,0-1.1,0-1.64a1.71,1.71,0,0,1,1.58-1.68,1.78,1.78,0,0,1,2,1.19c.06.17.26.45-.09.51s-.54.21-.66-.25A1,1,0,0,0,83,41.53a1,1,0,0,0-.82,1c0,1,0,2,0,3.07a1,1,0,0,0,1,1.06,1,1,0,0,0,1-1.07,1.93,1.93,0,0,1,0-.34c.06-.42-.06-.64-.52-.55-.27,0-.42,0-.42-.36s.13-.39.41-.37,1-.18,1.24.08S85,45,85,45.52a1.84,1.84,0,0,1-3.67.21C81.32,45.18,81.34,44.63,81.34,44.09Z"/><path class="ultitech-cls-1" d="M94.31,47.17c0,.51,0,1,0,1.47,0,.28-.09.37-.37.37s-.38,0-.38-.35c0-1.88,0-3.75,0-5.62,0-.32.32-.49.66-.29.19.12.27.06.41,0a1.54,1.54,0,0,1,2.21,1.45q0,.79,0,1.59a1.55,1.55,0,0,1-2.26,1.48Z"/><path class="ultitech-cls-2" d="M98.8,42.89c.24-.09.41-.17.58-.22a1.51,1.51,0,0,1,2,1.45c0,.66,0,1.33,0,2,0,.22,0,.42.26.53s.2.42.12.61-.3.06-.44,0a1,1,0,0,1-.66-1V44.31c0-.61-.34-1-.85-1a.91.91,0,0,0-1,1c0,.88,0,1.76,0,2.63,0,.29,0,.42-.38.42s-.38-.13-.37-.42c0-1.9,0-3.81,0-5.71,0-.31.11-.4.4-.4s.37.12.36.39C98.79,41.76,98.8,42.31,98.8,42.89Z"/><path class="ultitech-cls-1" d="M92.16,44.68V46c0,.27,0,.51.3.66s.14.42.07.58-.37.08-.47,0c-.33-.32-.57-.19-.93,0A1.53,1.53,0,0,1,88.87,46c0-.59,0-1.19,0-1.78a1.49,1.49,0,0,1,1.42-1.55h.25a2.34,2.34,0,0,1,1.52.34c.29.26.06.81.09,1.23A4.13,4.13,0,0,1,92.16,44.68Z"/><path class="ultitech-cls-1" d="M110.7,47.42a1.43,1.43,0,0,1-1.45-1.18c0-.12-.14-.34.1-.34s.49-.2.62.19a.79.79,0,0,0,1,.63.67.67,0,0,0,.53-.54.58.58,0,0,0-.35-.65c-.34-.17-.7-.31-1-.48a1.22,1.22,0,0,1-.74-1.5,1.4,1.4,0,0,1,1.48-.93,1.44,1.44,0,0,1,1.34,1.12c0,.11.08.28-.1.27s-.52.17-.65-.17a.73.73,0,0,0-.74-.54.58.58,0,0,0-.6.43.49.49,0,0,0,.3.61c.31.16.63.29.94.44a1.36,1.36,0,0,1,.87,1.64A1.49,1.49,0,0,1,110.7,47.42Z"/><path class="ultitech-cls-1" d="M105,45c0-.3,0-.6,0-.9a1.47,1.47,0,0,1,1.37-1.48,1.55,1.55,0,0,1,1.77,1c0,.17.25.45-.09.52s-.51.16-.61-.27a.78.78,0,0,0-1-.6.91.91,0,0,0-.78.89c0,.54,0,1.09,0,1.64a.89.89,0,0,0,.77.89.83.83,0,0,0,1-.62c.11-.42.39-.31.62-.28s.14.31.1.47a1.54,1.54,0,0,1-1.85,1.1A1.44,1.44,0,0,1,105,46C105,45.64,105,45.32,105,45Z"/><path class="ultitech-cls-2" d="M68.7,43.1a1.65,1.65,0,0,1,1.56-.43,1.42,1.42,0,0,1,1.11,1.45c0,.7,0,1.39,0,2.09,0,.29,0,.56.27.75a.25.25,0,0,1,.06.36c-.11.14-.25,0-.35,0a1,1,0,0,1-.45-.94c0-.7,0-1.39,0-2.09A1.11,1.11,0,0,0,69.84,43a1.12,1.12,0,0,0-1.14,1.23c0,.89,0,1.79,0,2.68,0,.15.12.4-.19.41s-.23-.22-.23-.38V41.24c0-.16-.08-.4.22-.39s.2.25.2.41C68.71,41.85,68.7,42.44,68.7,43.1Z"/><path class="ultitech-cls-2" d="M80.14,45c0,.31,0,.63,0,.94a1.54,1.54,0,0,1-3.07.09,18.92,18.92,0,0,1,0-2.13,1.45,1.45,0,0,1,1.61-1.33,1.43,1.43,0,0,1,1.46,1.44C80.15,44.38,80.14,44.71,80.14,45Z"/><path class="ultitech-cls-1" d="M84.8,25.17c0,.29,0,.59,0,.89s0,.5-.45.47c-.57,0-1.15,0-1.73,0-.2,0-.33,0-.32-.29a2.53,2.53,0,0,1,2.12-2.33c.31,0,.41.06.38.37S84.8,24.87,84.8,25.17Z"/><path class="ultitech-cls-2" d="M73.15,43.07a5.35,5.35,0,0,1,.65-.35,1.42,1.42,0,0,1,2,1.31c0,.71,0,1.42,0,2.13,0,.31,0,.6.29.8a.25.25,0,0,1,.07.35c-.1.16-.25,0-.35,0a.84.84,0,0,1-.44-.83c0-.76,0-1.52,0-2.28a1.1,1.1,0,0,0-.77-1.1,1.11,1.11,0,0,0-1.2.38,1.07,1.07,0,0,0-.24.79V47c0,.18,0,.39-.25.38s-.2-.22-.2-.36c0-1.3,0-2.59,0-3.88,0-.13-.12-.34.15-.4S73.15,42.84,73.15,43.07Z"/><path class="ultitech-cls-2" d="M60.12,45c0-.36,0-.73,0-1.09a1.48,1.48,0,0,1,1.76-1.27,1.38,1.38,0,0,1,1.25,1.51,1.08,1.08,0,0,1-.74,1,14.2,14.2,0,0,1-1.53.59c-.39.12-.38.34-.26.64a1.06,1.06,0,0,0,1,.7,7.91,7.91,0,0,0,.84-.06c.11,0,.24-.09.26.1a.25.25,0,0,1-.14.28,1.73,1.73,0,0,1-2.5-1.46c0-.3,0-.6,0-.9Z"/><path class="ultitech-cls-3" d="M58.44,40.84h1.24c.17,0,.38-.08.4.22s-.2.24-.37.25c-1,0-1,0-1,1.07,0,1.5,0,3,0,4.52,0,.16.12.43-.22.44s-.27-.26-.27-.45c0-1.71,0-3.41,0-5.12,0-.36-.06-.52-.45-.47-.23,0-.47,0-.7,0s-.27,0-.27-.24.12-.24.29-.24Z"/><path class="ultitech-cls-4" d="M64.09,45a11.78,11.78,0,0,1,0-1.19,1.39,1.39,0,0,1,1.39-1.23,1.48,1.48,0,0,1,1.58,1.08c0,.11.12.27-.09.32a.27.27,0,0,1-.34-.19c-.3-.66-.71-.91-1.24-.79s-.89.56-.89,1.3c0,.51,0,1,0,1.53A1.09,1.09,0,0,0,65.37,47a1.07,1.07,0,0,0,1.3-.72c.07-.21.14-.35.36-.27s.08.29,0,.43a1.47,1.47,0,0,1-1.64,1,1.35,1.35,0,0,1-1.33-1.23A10.84,10.84,0,0,1,64.09,45Z"/><path class="ultitech-cls-1" d="M86.28,45c0-.64,0-1.28,0-1.93,0-.12-.09-.33.15-.35s.47-.12.53.08.17.15.29.06a1.31,1.31,0,0,1,.64-.24c.23,0,.46-.07.47.31s-.08.38-.39.38a.92.92,0,0,0-1,1q0,1.34,0,2.67c0,.29-.08.37-.36.37s-.37-.09-.37-.37C86.29,46.33,86.28,45.67,86.28,45Z"/><path class="ultitech-cls-2" d="M103.53,44.67c0,.47,0,.95,0,1.43,0,.28,0,.56.36.65s.15.34.13.51-.21.16-.35.14a1,1,0,0,1-.86-1c0-1.14,0-2.28,0-3.42,0-.27.14-.3.34-.28s.41-.06.4.27C103.52,43.54,103.53,44.1,103.53,44.67Z"/><path class="ultitech-cls-5" d="M103.21,41.69c-.36.09-.44-.09-.44-.43s.06-.43.41-.43.45.1.44.45S103.58,41.78,103.21,41.69Z"/><path class="ultitech-cls-6" d="M23.85,32.27c1.07,0,2.08,0,3.09,0,.26,0,.3.11.29.33,0,.48,0,1,0,1.44,0,.26.09.36.35.35,1,0,2.05,0,3.08,0,.26,0,.3-.11.3-.33q0-3.57,0-7.16c0-.24-.09-.31-.32-.31-1.76,0-3.51,0-5.27,0-.33,0-.32.17-.32.4,0,1.33,0,2.65,0,4,0,.4-.11.54-.5.48a1.7,1.7,0,0,0-.39,0c-.32,0-.39-.11-.39-.4,0-1.77,0-3.55,0-5.32,0-.33.11-.41.43-.41,2.53,0,5.07,0,7.6,0,.34,0,.41.11.41.42,0,3.18,0,6.36,0,9.54,0,.32-.09.39-.39.39-1.41,0-2.82,0-4.23,0a3,3,0,0,1-2-.9A8.06,8.06,0,0,1,23.85,32.27Z"/><path class="ultitech-cls-6" d="M23.79,42.25c0-1.57,0-3.14,0-4.72,0-.35.09-.44.44-.43,1.29,0,2.59,0,3.88,0a3.11,3.11,0,0,1,2.22.82A8.11,8.11,0,0,1,32,40.17c.12.22.12.32-.17.32-.91,0-1.82,0-2.74,0-.24,0-.32-.09-.31-.32,0-.46,0-.93,0-1.39s-.1-.44-.43-.44q-1.47,0-2.94,0c-.32,0-.38.11-.38.4,0,2.36,0,4.71,0,7.06,0,.32.11.38.4.38h5.07c.35,0,.46-.1.45-.44,0-1.31,0-2.62,0-3.93,0-.38.09-.55.49-.49a1.27,1.27,0,0,0,.39,0c.32,0,.39.09.39.39,0,1.77,0,3.54,0,5.32,0,.3-.08.39-.39.39q-3.82,0-7.65,0c-.37,0-.4-.15-.4-.44C23.79,45.4,23.79,43.83,23.79,42.25Z"/><path class="ultitech-cls-6" d="M33.71,32.27h3.07c.24,0,.32.07.32.31,0,.45,0,.9,0,1.34s.07.49.44.48c1,0,2,0,2.93,0,.32,0,.38-.12.38-.41q0-3.49,0-7c0-.3-.08-.39-.39-.39-1.72,0-3.44,0-5.16,0-.33,0-.38.13-.38.41,0,1.32,0,2.65,0,4,0,.35-.07.54-.46.47a1.29,1.29,0,0,0-.34,0c-.35,0-.45-.08-.45-.43,0-1.76,0-3.52,0-5.27,0-.37.12-.43.45-.43q3.75,0,7.51,0c.33,0,.45.06.45.43,0,3.16,0,6.33,0,9.49,0,.36-.11.43-.44.43-1.35,0-2.69,0-4,0A2.72,2.72,0,0,1,36,35.14,7.45,7.45,0,0,1,33.71,32.27Z"/><path class="ultitech-cls-6" d="M33.68,42.22c0-1.57,0-3.15,0-4.72,0-.32.07-.41.41-.4,1.33,0,2.65,0,4,0a3,3,0,0,1,2,.72,7.7,7.7,0,0,1,1.82,2.34c.16.29,0,.33-.22.33q-1.32,0-2.64,0c-.27,0-.38-.06-.37-.36s0-.89,0-1.34c0-.3-.07-.45-.42-.45-1,0-2,0-3,0-.3,0-.35.12-.35.39q0,3.52,0,7.05c0,.29.07.41.39.4h5.16c.33,0,.39-.12.38-.4,0-1.33,0-2.65,0-4,0-.39.1-.54.49-.48a2.26,2.26,0,0,0,.45,0c.23,0,.31.07.31.31,0,1.82,0,3.64,0,5.47,0,.28-.12.32-.36.32-2.57,0-5.13,0-7.7,0-.36,0-.34-.18-.34-.43Z"/><path class="ultitech-cls-6" d="M96.13,45.06c0,.28,0,.57,0,.85a.91.91,0,0,1-.94.84.89.89,0,0,1-.87-.85,17.61,17.61,0,0,1,0-1.78.91.91,0,0,1,1.81,0C96.16,44.43,96.13,44.75,96.13,45.06Z"/><path class="ultitech-cls-6" d="M91.43,44.78c0,.35,0,.7,0,1a.93.93,0,0,1-.91.93.92.92,0,0,1-.93-1c0-.53,0-1.06,0-1.59a.85.85,0,0,1,.53-.82,1.56,1.56,0,0,1,1.2,0c.13.05.11.19.11.3Z"/><path class="ultitech-cls-6" d="M79.72,45c0,.31,0,.63,0,.94a1.08,1.08,0,0,1-1.15,1,1,1,0,0,1-1.06-1.07q0-.91,0-1.83A1.09,1.09,0,0,1,78.62,43a1.12,1.12,0,0,1,1.1,1.11c0,.29,0,.59,0,.89Z"/><path class="ultitech-cls-6" d="M60.54,45.35c0-.49,0-.9,0-1.31a1.06,1.06,0,0,1,.78-1,1,1,0,0,1,1.16.35.77.77,0,0,1-.3,1.31C61.68,44.94,61.15,45.12,60.54,45.35Z"/></svg>