<svg xmlns="http://www.w3.org/2000/svg" viewBox="0 0 145 72"><defs><style>.cls-1{isolation:isolate;}.cls-2{mix-blend-mode:multiply;}.cls-3{fill:#fff;}.cls-4{fill:#99cb51;}.cls-5{fill:#0475b0;}</style></defs><g class="cls-1"><g id="Layer_1" data-name="Layer 1"><g class="cls-2"><rect class="cls-3" x="50.26" y="16.31" width="43.78" height="43.53"/><path class="cls-4" d="M51.41,17.08H93.14V58.82H51.41Zm-1.8,43.53H94.94V15.29H49.61Z"/><polygon class="cls-5" points="80.8 35.71 78.3 35.71 75.17 26.55 75.17 33.89 76.47 33.89 76.47 35.71 72.03 35.71 72.03 33.89 73.13 33.89 73.13 25.01 71.82 25.01 71.82 23.18 76.42 23.18 79.84 33.21 82.94 23.18 87.49 23.18 87.49 25.01 86.18 25.01 86.18 33.89 87.43 33.89 87.43 35.71 82.62 35.71 82.62 33.89 83.67 33.89 83.67 26.67 80.8 35.71"/><path class="cls-5" d="M60.79,45.4V41.34h1.38a2,2,0,0,1,0,4.06Zm-2.62,4.85H56.93v1.83H62V50.25H60.79v-3h1.76a3.89,3.89,0,0,0,4.16-4c0-2.46-1.56-3.71-4.59-3.71H56.93v1.83h1.24Z"/><polygon class="cls-5" points="70.6 41.34 69.47 41.34 69.47 39.51 74.35 39.51 74.35 41.34 73.22 41.34 73.22 50.25 74.35 50.25 74.35 52.08 69.47 52.08 69.47 50.25 70.6 50.25 70.6 41.34"/><polygon class="cls-5" points="87.44 52.08 78.37 52.08 78.37 50.25 79.5 50.25 79.5 41.34 78.15 41.34 78.15 39.51 87.44 39.51 87.44 43.21 85.28 43.21 85.28 41.34 82.12 41.34 82.12 44.64 85.28 44.64 85.28 46.58 82.12 46.58 82.12 50.25 85.28 50.25 85.28 48.13 87.44 48.13 87.44 52.08"/><polygon class="cls-5" points="69.28 33.89 65.06 29.11 68.96 25.01 69.87 25.01 69.87 23.18 65.54 23.18 65.54 25.01 66.71 25.01 63.94 27.84 61.42 25.01 62.59 25.01 62.59 23.18 57.36 23.18 57.36 25.01 58.27 25.01 62.21 29.6 57.97 33.89 56.93 33.89 56.93 35.71 61.58 35.71 61.58 33.89 60.47 33.89 63.34 30.91 65.88 33.89 64.77 33.89 64.77 35.71 70.32 35.71 70.32 33.89 69.28 33.89"/><path class="cls-5" d="M89.93,22.85a1.37,1.37,0,1,1-1.38,1.36,1.35,1.35,0,0,1,1.38-1.36Zm0,.23a1.14,1.14,0,1,0,1.13,1.13,1.12,1.12,0,0,0-1.13-1.13Zm-.55.33h.49a.89.89,0,0,1,.55.12.38.38,0,0,1,.18.34.46.46,0,0,1-.36.43l.44.7h-.36l-.4-.66h-.2V25h-.34Zm.34.72h.21c.2,0,.32-.1.32-.25s-.18-.25-.38-.25h-.15Z"/><path class="cls-5" d="M89.93,22.85a1.37,1.37,0,1,1-1.38,1.36,1.35,1.35,0,0,1,1.38-1.36Zm0,.23a1.14,1.14,0,1,0,1.13,1.13,1.12,1.12,0,0,0-1.13-1.13Zm-.55.33h.49a.89.89,0,0,1,.55.12.38.38,0,0,1,.18.34.46.46,0,0,1-.36.43l.44.7h-.36l-.4-.66h-.2V25h-.34Zm.34.72h.21c.2,0,.32-.1.32-.25s-.18-.25-.38-.25h-.15Z"/></g></g></g></svg>