<?xml version="1.0" encoding="utf-8"?>
<!-- Generator: Adobe Illustrator 24.1.3, SVG Export Plug-In . SVG Version: 6.00 Build 0)  -->
<svg version="1.0" id="artwork" xmlns="http://www.w3.org/2000/svg" xmlns:xlink="http://www.w3.org/1999/xlink" x="0px" y="0px"
	 viewBox="0 0 109.75 109.74" style="enable-background:new 0 0 109.75 109.74;" xml:space="preserve">
<style type="text/css">
	.st0{fill:none;}
	.st1{fill:#33A544;}
</style>
<g id="grid_logo">
</g>
<g>
	<rect class="st0" width="109.75" height="109.74"/>
</g>
<g>
	<g>
		<path class="st1" d="M74.76,8.99c-0.45,0-0.9,0.09-1.32,0.24l-54.28,8.43c-0.05,0-0.1-0.01-0.15-0.01c-3.26,0-5.9,4.21-5.9,9.41
			c0,5.2,2.64,9.41,5.9,9.41c0.44,0,0.93-0.08,1.45-0.23l54.3-8.43c3.26,0,5.9-4.21,5.9-9.41C80.66,13.2,78.02,8.99,74.76,8.99z
			 M19.01,34.53c-1.87,0-3.96-3.07-3.96-7.46c0-4.4,2.08-7.46,3.96-7.46c1.67,0,3.3,2.34,3.8,5.45c0.1,0.65,0.16,1.33,0.16,2.01
			C22.97,31.46,20.88,34.53,19.01,34.53z"/>
	</g>
	<g>
		<g>
			<g>
				<path class="st1" d="M88.44,32.6c-2.04-2.54-4.6-4.06-7.39-4.06c-0.93,0-1.82,0.18-2.69,0.5l-4.2,0.69L88.44,32.6z"/>
				<path class="st1" d="M73.91,45.67l-0.34,0.06l-0.34-0.07l-38.69-7.79l-4.41-0.89l-5.42,0.89c-0.1,0-0.21-0.02-0.31-0.02
					c-6.65,0-12.03,8.59-12.03,19.19c0,10.6,5.39,19.19,12.03,19.19c0.9,0,1.91-0.17,2.96-0.47l53.69-8.84
					c6.64,0,12.03-8.59,12.03-19.19c0-1.79-0.16-3.51-0.45-5.15L73.91,45.67z M24.41,72.26c-3.81,0-8.06-6.25-8.06-15.22
					c0-8.97,4.25-15.22,8.06-15.22c3.41,0,6.74,4.78,7.74,11.12c0.21,1.33,0.32,2.71,0.32,4.1C32.47,66.01,28.22,72.26,24.41,72.26z
					"/>
			</g>
		</g>
	</g>
	<path class="st1" d="M13.99,79.3c-4.46,0-8.97,1.36-8.97,3.96v15.24c0,2.6,4.51,3.96,8.97,3.96s8.97-1.36,8.97-3.96V83.26
		C22.96,80.66,18.45,79.3,13.99,79.3z M20.96,93.71c-1.36-0.91-3.97-1.53-6.97-1.53c-3,0-5.61,0.62-6.97,1.53v-7.87
		c1.73,0.91,4.36,1.38,6.97,1.38s5.24-0.47,6.97-1.38V93.71z M13.99,81.3c4.53,0,6.97,1.39,6.97,1.96s-2.44,1.96-6.97,1.96
		s-6.97-1.39-6.97-1.96S9.47,81.3,13.99,81.3z"/>
	<path class="st1" d="M39.42,84.52l-4.75-2.48c0.03,0.38,0.06,0.77,0.06,1.17c0,4.4-2.08,7.46-3.96,7.46
		c-1.87,0-3.96-3.07-3.96-7.46c0-4.4,2.08-7.46,3.96-7.46c1.67,0,3.3,2.34,3.8,5.45c0.01,0.08,0.02,0.16,0.03,0.24l57.68-8.96
		c-0.59-4.21-2.94-7.35-5.76-7.35c-0.45,0-0.9,0.09-1.32,0.24L30.93,73.8c-0.05,0-0.1-0.01-0.15-0.01c-3.26,0-5.9,4.21-5.9,9.41
		c0,5.2,2.64,9.41,5.9,9.41c0.44,0,0.93-0.08,1.45-0.23l54.3-8.43c2.88,0,5.28-3.29,5.79-7.65L39.42,84.52z"/>
	<path class="st1" d="M34.7,82.05c-0.53,0.17-1.02,0.37-1.39,0.6c-1.07,0.65-1.47,1.83-1.79,2.79c-0.42,1.28-0.59,1.46-0.89,1.47
		c-0.38-0.2-1.06-1.76-1.51-2.79c-1.24-2.86-2.94-6.79-6.52-6.79c-6.09,0-6.09,5.17-6.09,6.86v9.05c0,0.55,0.45,1,1,1s1-0.45,1-1
		v-9.05c0-2.92,0.69-4.86,4.09-4.86c2.26,0,3.6,3.1,4.68,5.58c0.96,2.22,1.73,3.98,3.26,3.98c1.94,0,2.5-1.7,2.88-2.83
		c0.25-0.74,0.48-1.44,0.93-1.71c0.64-0.39,1.86-0.68,3.06-0.89L34.7,82.05z"/>
	<polyline class="st1" points="69.02,30.6 107.19,38.28 73.61,43.82 34.91,36.04 69.02,30.6 	"/>
</g>
</svg>
