<?xml version="1.0" encoding="utf-8"?>
<!-- Generator: Adobe Illustrator 24.1.3, SVG Export Plug-In . SVG Version: 6.00 Build 0)  -->
<svg version="1.0" id="artwork" xmlns="http://www.w3.org/2000/svg" xmlns:xlink="http://www.w3.org/1999/xlink" x="0px" y="0px"
	 viewBox="0 0 109.75 109.74" style="enable-background:new 0 0 109.75 109.74;" xml:space="preserve">
<style type="text/css">
	.st0{fill:none;}
	.st1{fill:#33A544;}
</style>
<g id="grid_logo">
</g>
<g>
	<rect class="st0" width="109.75" height="109.74"/>
</g>
<g>
	<g>
		<polygon class="st1" points="52.09,36.77 59.99,35.57 59.99,60.59 51.96,61.71 		"/>
	</g>
	<g>
		<polygon class="st1" points="7.46,42.35 7.46,97.17 28.42,93.48 28.42,38.66 		"/>
	</g>
	<polygon class="st1" points="30.67,90.36 30.67,95.33 5.21,99.82 5.21,94.85 1.65,95.48 1.65,103.76 34.22,98.02 34.22,89.73 	"/>
	<g>
		<polygon class="st1" points="49.7,34.56 56.36,5.98 19.58,28.47 22.79,29.12 		"/>
	</g>
	<polygon class="st1" points="49.7,34.59 49.7,34.56 22.79,29.12 	"/>
	<polygon class="st1" points="42.76,35.48 19.57,30.77 19.57,37.93 30.67,35.98 30.67,69 49.7,72.84 49.7,36.89 	"/>
	<path class="st1" d="M99.44,97.5l-4.11-0.95l-5.25,0.95V84.18c0,0,17.9-39.43,17.9-44.48c0-5.04-1.08-12.27-10.38-12.27
		c-9.3,0-10.34,9.82-10.34,15.51c0,5.28,0,48.44,0,54.56l-6.98-1.55l-4.02,0.77l8.1,1.79l-6.75,1.22l4.11,0.95l6.85-1.24l8.21,1.82
		l4.02-0.77l-8.1-1.79L99.44,97.5z"/>
	<path class="st1" d="M84.99,42.94c0-5.24,0.91-8.96,2.29-11.6l-25.04,3.86v25.8l22.75,4.63V42.94z"/>
	<path class="st1" d="M90.83,27.19L58.38,7.22l-6.36,27.28l37-5.71C89.6,28.16,90.2,27.63,90.83,27.19z"/>
</g>
</svg>
