<svg id="Layer_1" data-name="Layer 1" xmlns="http://www.w3.org/2000/svg" viewBox="0 0 145 72"><defs><style>.cls-1-esko{fill:#beca2a;}.cls-2-esko{fill:#3b4953;}</style></defs><path class="cls-1-esko" d="M127.85,36.82a11,11,0,1,1-11-11A11,11,0,0,1,127.85,36.82ZM125.66,34a1.63,1.63,0,0,0-2.21-1.23l-4.73,1.54v-5a1.86,1.86,0,0,0-3.71,0v5l-4.73-1.54A1.64,1.64,0,0,0,108.07,34a1.64,1.64,0,0,0,1.07,2.3l4.72,1.53-2.92,4a1.86,1.86,0,0,0,3,2.17l2.92-4,2.93,4a1.86,1.86,0,0,0,3-2.17l-2.92-4,4.72-1.53A1.64,1.64,0,0,0,125.66,34Z"/><path class="cls-2-esko" d="M23.52,30.22H34.64a2,2,0,1,0,0-4.09H23.52c-3.87,0-6.37,2.3-6.37,5.87v9.64c0,3.57,2.5,5.88,6.37,5.88H34.64a2,2,0,1,0,0-4.09H23.52c-2.28,0-2.28-1.21-2.28-1.79V38.87h13.4a2,2,0,1,0,0-4.09H21.24V32C21.24,31.43,21.24,30.22,23.52,30.22Z"/><path class="cls-2-esko" d="M53,34.78h-6.8c-2.28,0-2.28-1.54-2.28-2.28s0-2.28,2.28-2.28h9.64a2,2,0,0,0,0-4.09H46.22c-2.94,0-6.37,1.67-6.37,6.37s3.43,6.37,6.37,6.37H53c2.28,0,2.28,1.54,2.28,2.28s0,2.28-2.28,2.28H41.9a2,2,0,1,0,0,4.09H53c2.94,0,6.37-1.67,6.37-6.37S56,34.78,53,34.78Z"/><path class="cls-2-esko" d="M79.25,26.89a2.08,2.08,0,0,0-1.6-.76,2.06,2.06,0,0,0-1.28.45l-9.76,7.85V28.17a2,2,0,0,0-4.09,0v17.3a2,2,0,1,0,4.09,0V39.2l9.76,7.87a2,2,0,0,0,2.87-.31,2,2,0,0,0,.44-1.51,2,2,0,0,0-.75-1.37l-8.76-7.06,8.76-7A2.06,2.06,0,0,0,79.25,26.89Z"/><path class="cls-2-esko" d="M95.32,26.13H88.15c-3.87,0-6.37,2.3-6.37,5.87v9.64c0,3.57,2.5,5.88,6.37,5.88h7.17c3.87,0,6.37-2.31,6.37-5.88V32C101.69,28.43,99.19,26.13,95.32,26.13ZM85.87,32c0-.57,0-1.78,2.28-1.78h7.17c2.28,0,2.28,1.21,2.28,1.78v9.64c0,.58,0,1.79-2.28,1.79H88.15c-2.28,0-2.28-1.21-2.28-1.79Z"/></svg>