<svg id="Layer_1" data-name="Layer 1" xmlns="http://www.w3.org/2000/svg" xmlns:xlink="http://www.w3.org/1999/xlink" viewBox="0 0 145 72"><defs><style>.fxerox-cls-1{fill:none;}.fxerox-cls-2{fxerox-clip-path:url(#fxerox-clip-path);}.fxerox-cls-3{fill:url(#fxerox-radial-gradient);}.fxerox-cls-4{fxerox-clip-path:url(#fxerox-clip-path-2);}.fxerox-cls-5{fill:#fff;}.fxerox-cls-6{fill:#fdfeff;}.fxerox-cls-7{fill:#fbfcfc;}.fxerox-cls-8{fill:#fafbfc;}.fxerox-cls-9{fill:#f9fbfb;}.fxerox-cls-10{fill:#f9f9fa;}.fxerox-cls-11{fill:#f7f8f8;}.fxerox-cls-12{fill:#f6f6f6;}.fxerox-cls-13{fill:#f5f6f6;}.fxerox-cls-14{fill:#f4f4f5;}.fxerox-cls-15{fill:#f4f4f4;}.fxerox-cls-16{fill:#f3f3f3;}.fxerox-cls-17{fill:#f3f2f3;}.fxerox-cls-18{fill:#f2f2f2;}.fxerox-cls-19{fill:#f1f0f0;}.fxerox-cls-20{fill:#f0f1f1;}.fxerox-cls-21{fill:#f0efef;}.fxerox-cls-22{fill:#eeedee;}.fxerox-cls-23{fill:#edeeee;}.fxerox-cls-24{fill:#ededee;}.fxerox-cls-25{fill:#ececed;}.fxerox-cls-26{fill:#ebeceb;}.fxerox-cls-27{fill:#ebebeb;}.fxerox-cls-28{fill:#eaeaeb;}.fxerox-cls-29{fill:#e9eae9;}.fxerox-cls-30{fill:#e9e8e9;}.fxerox-cls-31{fill:#e7e8e8;}.fxerox-cls-32{fill:#e8e7e7;}.fxerox-cls-33{fill:#e6e6e5;}.fxerox-cls-34{fxerox-clip-path:url(#fxerox-clip-path-3);}.fxerox-cls-35{fxerox-clip-path:url(#fxerox-clip-path-4);}.fxerox-cls-36{fill:#da1f28;}.fxerox-cls-37{fxerox-clip-path:url(#fxerox-clip-path-5);}.fxerox-cls-38{fill:url(#fxerox-linear-gradient);}.fxerox-cls-39{fxerox-clip-path:url(#fxerox-clip-path-6);}.fxerox-cls-40{fill:url(#fxerox-radial-gradient-2);}.fxerox-cls-41{fxerox-clip-path:url(#fxerox-clip-path-8);}.fxerox-cls-42{opacity:0.8;}.fxerox-cls-43{fxerox-clip-path:url(#fxerox-clip-path-9);}.fxerox-cls-44{fill:url(#fxerox-linear-gradient-2);}.fxerox-cls-45{fxerox-clip-path:url(#fxerox-clip-path-10);}.fxerox-cls-46{fill:url(#fxerox-linear-gradient-3);}</style><clipPath id="fxerox-clip-path"><rect class="fxerox-cls-1" x="115.97" y="22.47" width="27.05" height="27.05"/></clipPath><radialGradient id="fxerox-radial-gradient" cx="-425.64" cy="50.36" r="0.35" gradientTransform="matrix(38.59, 0, 0, -38.59, 16555.34, 1979.35)" gradientUnits="userSpaceOnUse"><stop offset="0" stop-color="#fff"/><stop offset="0.84" stop-color="#fff"/><stop offset="1" stop-color="#c9cac9"/></radialGradient><clipPath id="fxerox-clip-path-2"><rect class="fxerox-cls-1" x="1.98" y="22.47" width="141.05" height="27.06"/></clipPath><clipPath id="fxerox-clip-path-3"><rect class="fxerox-cls-1" x="115.97" y="22.47" width="27.05" height="27.06"/></clipPath><clipPath id="fxerox-clip-path-4"><rect class="fxerox-cls-1" x="115.97" y="22.47" width="27.05" height="27.06"/></clipPath><clipPath id="fxerox-clip-path-5"><rect class="fxerox-cls-1" x="111.6" y="18.14" width="35.78" height="35.78" transform="translate(25.7 121.43) rotate(-55)"/></clipPath><linearGradient id="fxerox-linear-gradient" x1="-429.41" y1="50.5" x2="-429.12" y2="50.5" gradientTransform="matrix(51.71, -73.85, -73.85, -51.71, 26057.75, -29054.41)" gradientUnits="userSpaceOnUse"><stop offset="0" stop-color="#e15642"/><stop offset="0.25" stop-color="#da1f28"/><stop offset="1" stop-color="#f6cfc1"/></linearGradient><clipPath id="fxerox-clip-path-6"><rect class="fxerox-cls-1" x="116.45" y="23" width="25.22" height="26.26"/></clipPath><radialGradient id="fxerox-radial-gradient-2" cx="-426.85" cy="50.97" r="0.35" gradientTransform="matrix(55.12, 0, 0, -55.12, 23664.77, 2844.45)" gradientUnits="userSpaceOnUse"><stop offset="0" stop-color="#fff"/><stop offset="0.32" stop-color="#f7f8f8"/><stop offset="0.8" stop-color="#e0e1e1"/><stop offset="1" stop-color="#d4d3d4"/></radialGradient><clipPath id="fxerox-clip-path-8"><rect class="fxerox-cls-1" x="116.76" y="23.33" width="24.54" height="25.69"/></clipPath><clipPath id="fxerox-clip-path-9"><rect class="fxerox-cls-1" x="115.51" y="21.14" width="27.03" height="30.01" transform="translate(41.74 137.81) rotate(-65)"/></clipPath><linearGradient id="fxerox-linear-gradient-2" x1="-426.89" y1="51.42" x2="-426.6" y2="51.42" gradientTransform="matrix(85.84, 40.03, 40.03, -85.84, 34705.34, 21530.92)" gradientUnits="userSpaceOnUse"><stop offset="0" stop-color="#7e7e7e"/><stop offset="0.68" stop-color="#f4f4f4"/><stop offset="1" stop-color="#9f9fa0"/></linearGradient><clipPath id="fxerox-clip-path-10"><rect class="fxerox-cls-1" x="115.63" y="23.87" width="29.69" height="24.61" transform="translate(42.55 139.14) rotate(-65)"/></clipPath><linearGradient id="fxerox-linear-gradient-3" x1="-429.69" y1="50.83" x2="-429.4" y2="50.83" gradientTransform="matrix(40.13, -86.07, -86.07, -40.13, 21747.13, -34893.29)" gradientUnits="userSpaceOnUse"><stop offset="0" stop-color="#7e7e7e"/><stop offset="0.79" stop-color="#f4f4f4"/><stop offset="1" stop-color="#9f9fa0"/></linearGradient></defs><g id="layer1"><g id="g3416"><g id="g3418"><g id="g3424"><g id="g3426"><g class="fxerox-cls-2"><g id="g3428"><path id="path3442" class="fxerox-cls-3" d="M116,36A13.53,13.53,0,0,0,129.5,49.53h0A13.52,13.52,0,0,0,143,36h0A13.52,13.52,0,0,0,129.5,22.47h0A13.53,13.53,0,0,0,116,36"/></g></g></g></g></g></g><g id="g3444"><g class="fxerox-cls-4"><g id="g3446"><g id="g3452"><path id="path3454" class="fxerox-cls-5" d="M120.06,30.06a11.15,11.15,0,1,1,3.53,15.3,11.11,11.11,0,0,1-3.53-15.3"/></g><g id="g3456"><path id="path3458" class="fxerox-cls-5" d="M120.2,30.06a11,11,0,1,1,3.54,15.06,11,11,0,0,1-3.54-15.06"/></g><g id="g3460"><path id="path3462" class="fxerox-cls-5" d="M120.35,30.06a10.92,10.92,0,1,1,3.55,14.82,10.82,10.82,0,0,1-3.55-14.82"/></g><g id="g3464"><path id="path3466" class="fxerox-cls-5" d="M120.49,30.07a10.8,10.8,0,1,1,3.56,14.57,10.68,10.68,0,0,1-3.56-14.57"/></g><g id="g3468"><path id="path3470" class="fxerox-cls-5" d="M120.63,30.07a10.68,10.68,0,0,1,18.05,11.4,10.69,10.69,0,0,1-18.05-11.4"/></g><g id="g3472"><path id="path3474" class="fxerox-cls-5" d="M120.77,30.08a10.56,10.56,0,0,1,17.85,11.27c-2.94,4.66-9.33,5.92-14.26,2.81a10.29,10.29,0,0,1-3.59-14.08"/></g><g id="g3476"><path id="path3478" class="fxerox-cls-6" d="M120.91,30.08a10.45,10.45,0,0,1,17.65,11.14c-2.88,4.57-9.17,5.78-14,2.7s-6.49-9.27-3.61-13.84"/></g><g id="g3480"><path id="path3482" class="fxerox-cls-7" d="M121.06,30.08c2.82-4.47,9.12-5.76,13.94-2.72s6.32,9.27,3.5,13.74-9,5.62-13.83,2.58-6.44-9.13-3.61-13.6"/></g><g id="g3484"><path id="path3486" class="fxerox-cls-7" d="M121.2,30.09c2.76-4.37,9-5.64,13.74-2.63s6.26,9.14,3.5,13.51-8.85,5.48-13.62,2.47-6.38-9-3.62-13.35"/></g><g id="g3488"><path id="path3490" class="fxerox-cls-8" d="M121.34,30.09c2.7-4.27,8.84-5.5,13.54-2.53s6.2,9,3.5,13.29-8.7,5.32-13.4,2.35-6.34-8.84-3.64-13.11"/></g><g id="g3492"><path id="path3494" class="fxerox-cls-9" d="M121.48,30.09c2.63-4.17,8.7-5.37,13.35-2.43s6.12,8.9,3.49,13.07S129.78,45.9,125.13,43s-6.28-8.7-3.65-12.87"/></g><g id="g3496"><path id="path3498" class="fxerox-cls-10" d="M121.62,30.1c2.57-4.07,8.55-5.24,13.15-2.34s6.06,8.77,3.49,12.84-8.38,5-13,2.12-6.24-8.55-3.67-12.62"/></g><g id="g3500"><path id="path3502" class="fxerox-cls-11" d="M121.76,30.1c2.51-4,8.41-5.11,13-2.24s6,8.65,3.49,12.62-8.22,4.87-12.76,2-6.18-8.41-3.68-12.38"/></g><g id="g3504"><path id="path3506" class="fxerox-cls-11" d="M121.91,30.1c2.44-3.87,8.26-5,12.74-2.15s5.93,8.53,3.49,12.4-8.06,4.72-12.54,1.89S119.46,34,121.91,30.1"/></g><g id="g3508"><path id="path3510" class="fxerox-cls-11" d="M122.05,30.11c2.38-3.77,8.12-4.85,12.55-2.06s5.86,8.41,3.48,12.18-7.9,4.57-12.33,1.77-6.08-8.12-3.7-11.89"/></g><g id="g3512"><path id="path3514" class="fxerox-cls-12" d="M122.19,30.11c2.32-3.67,8-4.72,12.35-2s5.8,8.28,3.48,12-7.75,4.41-12.12,1.65-6-8-3.71-11.65"/></g><g id="g3516"><path id="path3518" class="fxerox-cls-13" d="M122.33,30.12c2.26-3.58,7.84-4.59,12.15-1.87S140.22,36.41,138,40s-7.59,4.27-11.9,1.54-6-7.83-3.73-11.4"/></g><g id="g3520"><path id="path3522" class="fxerox-cls-13" d="M122.47,30.12c2.2-3.48,7.7-4.46,12-1.77s5.66,8,3.47,11.51-7.43,4.11-11.69,1.42-5.93-7.69-3.74-11.16"/></g><g id="g3524"><path id="path3526" class="fxerox-cls-14" d="M122.62,30.12c2.13-3.37,7.55-4.32,11.75-1.67s5.6,7.91,3.47,11.28-7.27,4-11.47,1.31-5.89-7.54-3.75-10.92"/></g><g id="g3528"><path id="path3530" class="fxerox-cls-15" d="M122.76,30.13c2.07-3.28,7.4-4.2,11.55-1.58s5.53,7.78,3.47,11.06-7.11,3.81-11.26,1.19-5.83-7.4-3.76-10.67"/></g><g id="g3532"><path id="path3534" class="fxerox-cls-16" d="M122.9,30.13c2-3.18,7.26-4.06,11.35-1.48s5.47,7.66,3.46,10.83-6.94,3.66-11,1.08-5.78-7.25-3.77-10.43"/></g><g id="g3536"><path id="path3538" class="fxerox-cls-17" d="M123,30.13c1.94-3.07,7.12-3.93,11.16-1.38s5.4,7.53,3.45,10.61-6.79,3.51-10.82,1S121.1,33.21,123,30.13"/></g><g id="g3540"><path id="path3542" class="fxerox-cls-18" d="M123.18,30.14c1.88-3,7-3.8,11-1.29s5.34,7.41,3.45,10.39S131,42.59,127,40.08s-5.68-7-3.8-9.94"/></g><g id="g3544"><path id="path3546" class="fxerox-cls-18" d="M123.32,30.14c1.82-2.88,6.84-3.67,10.76-1.19s5.27,7.28,3.45,10.16-6.47,3.21-10.39.73-5.63-6.82-3.82-9.7"/></g><g id="g3548"><path id="path3550" class="fxerox-cls-19" d="M123.47,30.14c1.75-2.78,6.69-3.53,10.56-1.09s5.2,7.16,3.44,9.94-6.31,3-10.18.61-5.58-6.68-3.82-9.46"/></g><g id="g3552"><path id="path3554" class="fxerox-cls-20" d="M123.61,30.15c1.69-2.68,6.55-3.41,10.36-1s5.14,7,3.44,9.71-6.15,2.91-10,.5-5.53-6.53-3.84-9.21"/></g><g id="g3556"><path id="path3558" class="fxerox-cls-21" d="M123.75,30.15c1.63-2.58,6.4-3.28,10.16-.9s5.07,6.91,3.44,9.49-6,2.75-9.75.38-5.48-6.39-3.85-9"/></g><g id="g3560"><path id="path3562" class="fxerox-cls-22" d="M123.89,30.16c1.57-2.49,6.26-3.15,10-.81s5,6.78,3.44,9.27-5.84,2.6-9.54.26-5.43-6.24-3.86-8.72"/></g><g id="g3564"><path id="path3566" class="fxerox-cls-23" d="M124,30.16c1.51-2.38,6.12-3,9.77-.72s4.94,6.67,3.43,9.05-5.68,2.45-9.32.15-5.38-6.1-3.88-8.48"/></g><g id="g3568"><path id="path3570" class="fxerox-cls-24" d="M124.18,30.16c1.44-2.28,6-2.88,9.56-.62s4.87,6.54,3.43,8.83-5.52,2.3-9.11,0-5.33-5.95-3.88-8.24"/></g><g id="g3572"><path id="path3574" class="fxerox-cls-25" d="M124.32,30.17c1.38-2.19,5.83-2.76,9.36-.53s4.81,6.42,3.43,8.6-5.36,2.15-8.89-.08-5.28-5.81-3.9-8"/></g><g id="g3576"><path id="path3578" class="fxerox-cls-26" d="M124.46,30.17c1.32-2.08,5.69-2.62,9.17-.43s4.74,6.29,3.42,8.38-5.2,2-8.68-.2-5.23-5.67-3.91-7.75"/></g><g id="g3580"><path id="path3582" class="fxerox-cls-27" d="M124.6,30.17c1.25-2,5.55-2.49,9-.33S138.24,36,137,38s-5,1.84-8.47-.32-5.17-5.52-3.92-7.51"/></g><g id="g3584"><path id="path3586" class="fxerox-cls-28" d="M124.74,30.18c1.19-1.89,5.41-2.36,8.77-.24s4.61,6,3.42,7.93-4.89,1.7-8.25-.43-5.13-5.38-3.94-7.26"/></g><g id="g3588"><path id="path3590" class="fxerox-cls-29" d="M124.88,30.18c1.13-1.79,5.27-2.23,8.57-.14S138,36,136.87,37.75s-4.73,1.54-8-.55-5.07-5.23-4-7"/></g><g id="g3592"><path id="path3594" class="fxerox-cls-30" d="M125,30.18c1.06-1.68,5.11-2.09,8.37,0s4.48,5.8,3.41,7.48S132.24,39,129,37s-5-5.09-4-6.78"/></g><g id="g3596"><path id="path3598" class="fxerox-cls-30" d="M125.17,30.19c1-1.59,5-2,8.17,0s4.41,5.67,3.41,7.26-4.41,1.24-7.61-.78-5-4.94-4-6.53"/></g><g id="g3600"><path id="path3602" class="fxerox-cls-31" d="M125.31,30.19c.94-1.49,4.83-1.84,8,.15s4.35,5.55,3.41,7-4.25,1.09-7.39-.89-4.93-4.8-4-6.29"/></g><g id="g3604"><path id="path3606" class="fxerox-cls-32" d="M125.45,30.19c.88-1.38,4.69-1.7,7.78.25s4.28,5.42,3.4,6.81-4.1.94-7.18-1-4.88-4.65-4-6.05"/></g><g id="g3608"><path id="path3610" class="fxerox-cls-33" d="M125.59,30.2c.82-1.29,4.55-1.58,7.58.34s4.21,5.3,3.4,6.59-3.94.78-7-1.13-4.82-4.51-4-5.8"/></g><g id="g3612"><g id="g3640"><g class="fxerox-cls-34"><g id="g3642"><g id="g3644"><g class="fxerox-cls-35"><g id="g3646"><g id="g3648"><path id="path3650" class="fxerox-cls-36" d="M143,36A13.53,13.53,0,1,0,129.5,49.53,13.52,13.52,0,0,0,143,36"/></g></g></g></g><g id="g3652"><g id="g3654"><g id="g3656"><g id="g3658"><g class="fxerox-cls-37"><g id="g3660"><path id="path3662" class="fxerox-cls-38" d="M116.65,36a12.83,12.83,0,0,0,12.83,12.85h0A12.83,12.83,0,0,0,142.33,36h0a12.84,12.84,0,0,0-12.84-12.84h0A12.83,12.83,0,0,0,116.65,36"/></g></g></g></g></g></g></g></g></g></g></g></g></g><g id="g3664"><g id="g3666"><g id="g3672"><g id="g3674"><g class="fxerox-cls-39"><g id="g3676"><path id="path3692" class="fxerox-cls-40" d="M134.27,26.3a21.16,21.16,0,0,1-.27,3.25h0a19.13,19.13,0,0,0-10.79-3.47h0a6.79,6.79,0,0,0-3.81.92h0a11.82,11.82,0,0,0-1.66,2.3h0a12.5,12.5,0,0,0-1.29,3.15h0a4.74,4.74,0,0,1,3.42-1.06h0c4.19,0,8.63,2.14,12.14,4.78h0c-2.66,6.16-7.07,11.09-9.84,11.09h0l-.19,0h0a13.15,13.15,0,0,0,4.84,2h0c3.16-.34,7.18-3.7,9.68-8.85h0c1.49,1.81,2.42,3.57,2.42,4.79h0a1.45,1.45,0,0,1-.11.61h0a13.45,13.45,0,0,0,2.74-3.65h0a4.86,4.86,0,0,0,.12-1.07h0c0-2-1.13-4.69-3.11-7.23h0a24,24,0,0,0,.3-3.75h0c0-3.42-.76-4.4-1-4.76h0a12.89,12.89,0,0,0-2-1.31h0a13.15,13.15,0,0,0-2.57-1h0c.22.16,1,.7,1,3.3"/></g></g></g></g></g></g><g id="g3694"><g class="fxerox-cls-4"><g id="g3696"><g id="g3702"><g id="g3742"><g class="fxerox-cls-41"><g id="g3744" class="fxerox-cls-42"><g id="g3746"><g id="g3748"><g id="g3750"><g id="g3752"><g class="fxerox-cls-43"><g id="g3754"><path id="path3756" class="fxerox-cls-44" d="M118.71,27.82c-.1.13-.29.41-.42.59h0a6.38,6.38,0,0,1,3.91-1h0c10.52,0,18.82,9.68,18.82,15.11h0a2.13,2.13,0,0,1-.15.76h0l.28-.44h0a2,2,0,0,0,.15-.87h0c0-5.54-8.21-15-18.75-15h0c-2.44,0-3.41.56-3.84.86m-1,1.51s-.25.45-.32.6h0a5.86,5.86,0,0,1,3.65-1h0c11.32,0,19.17,10.33,19.17,14.71h0a1.56,1.56,0,0,1-.15.74h0c.15-.18.26-.33.34-.44h0a1.66,1.66,0,0,0,.13-.84h0c0-4.29-7.7-14.71-19-14.71h0c-2.35,0-3.37.57-3.79.91M117,30.92c-.06.18-.13.35-.19.52h0a5.7,5.7,0,0,1,3.63-1h0c10.11,0,19,9.89,19,14.34h0a1.52,1.52,0,0,1-.12.59h0l.28-.3h0a1.82,1.82,0,0,0,.13-.69h0c0-4.5-8.59-14.46-19.07-14.46h0a5.5,5.5,0,0,0-3.68,1"/></g></g></g></g></g></g><g id="g3758"><g id="g3760"><g id="g3762"><g id="g3764"><g class="fxerox-cls-45"><g id="g3766"><path id="path3768" class="fxerox-cls-46" d="M135.12,26.7c0,11-8.2,20.64-12.23,21.11h0c.15.09.28.15.44.23h0c5.31-1.14,12.24-11.16,12.24-21.16h0a5.87,5.87,0,0,0-.81-3.35h0l-.5-.2h0a5.5,5.5,0,0,1,.86,3.37m1.23,1c0,10.28-6.93,19.65-12.36,20.68h0l.46.2h0c6.2-1.21,12.37-11,12.37-20.67h0a7.21,7.21,0,0,0-.92-3.81h0l-.48-.25h0a7,7,0,0,1,.93,3.85m1.23.53c0,10.87-6.26,19.54-12.36,20.64h0l.57.17h0c6.5-.93,12.27-10.46,12.27-20.31h0a6.73,6.73,0,0,0-1-3.91h0c-.16-.11-.31-.19-.48-.31h0a6.33,6.33,0,0,1,1,3.72"/></g></g></g></g></g></g></g></g></g></g><g id="g3770"><path id="path3772" class="fxerox-cls-36" d="M32.9,29.44c0-.45-.22-.67-.64-.67h-2c-.45,0-.64.24-.64.67v8.84c0,.9-.58,1.31-1.44,1.31a10,10,0,0,1-1.59-.22c-.26,0-.47.11-.56.52l-.23,1.26a.59.59,0,0,0,.47.73,10,10,0,0,0,2.42.28c2.69,0,4.21-1.29,4.21-4.18Zm41.41,1c1-1.25,2.51-1.89,4.92-1.89a8.66,8.66,0,0,1,1.93.17c.3.09.34.3.3.62l-.3,1.46c-.09.28-.15.37-.36.37l-.18,0c-.58,0-.4-.09-1.05-.09a2.81,2.81,0,0,0-2.27.77c-.56.62-.58,1.29-.58,2.9V41.3c0,.43-.19.67-.64.67h-2c-.43,0-.64-.21-.64-.67V34.87c0-2.39.12-3.42.87-4.4m-6.39,3.62H61.87a4.15,4.15,0,0,1,.39-1.24,3.13,3.13,0,0,1,2.89-1.78,2.71,2.71,0,0,1,2.77,3Zm3.13.07A6.21,6.21,0,0,0,69.19,30a6.13,6.13,0,0,0-4.1-1.46A6.71,6.71,0,0,0,60.86,30a7,7,0,0,0-2.45,5.49,6.45,6.45,0,0,0,1.89,4.85,7,7,0,0,0,4.87,1.78A10.44,10.44,0,0,0,70,41c.26-.17.39-.32.3-.58l-.55-1.56a.42.42,0,0,0-.6-.22,8.46,8.46,0,0,1-1.06.49,6.19,6.19,0,0,1-2.4.48,3.75,3.75,0,0,1-3.05-1.21,3.14,3.14,0,0,1-.79-1.91h8.73c.33,0,.48-.21.48-.6v-.62c0-.3,0-.79,0-1.07m20.22,1.2c0-2.27-.88-4.29-3.22-4.29s-3.24,2-3.24,4.29.9,4.31,3.24,4.31,3.22-2,3.22-4.31m3.45,0A6.52,6.52,0,0,1,88,42.16a6.42,6.42,0,0,1-6.63-6.71c0-3.87,2.61-6.87,6.63-6.87a6.49,6.49,0,0,1,6.71,6.78m1-6.05c-.11-.39,0-.54.26-.54h2.77c.32,0,.45.13.6.5a17,17,0,0,0,2.31,3.9,18.86,18.86,0,0,0,2.67-3.9c.23-.45.32-.5.62-.5h2.14c.2,0,.43.11.3.47a17.67,17.67,0,0,1-3.88,5.91,20.29,20.29,0,0,1,4.25,6.3c.08.26,0,.52-.45.52h-2.58c-.28,0-.45,0-.64-.47a13.35,13.35,0,0,0-2.86-4.4l.18,0a16.36,16.36,0,0,0-2.92,4.42c-.17.38-.28.47-.65.47H95.47c-.15,0-.32-.17-.21-.49a16.31,16.31,0,0,1,4.1-6.08,20.31,20.31,0,0,1-3.65-6.09m-50,0c-.11-.39,0-.54.28-.54h2.75c.32,0,.45.11.62.5a17.75,17.75,0,0,0,2.29,3.9h0a18.75,18.75,0,0,0,2.64-3.9c.23-.45.32-.5.62-.5h2.14c.2,0,.43.11.3.47a17.36,17.36,0,0,1-3.86,5.91,20.63,20.63,0,0,1,4.23,6.3c.09.26,0,.52-.45.52H54.74c-.27,0-.47,0-.66-.45a12.72,12.72,0,0,0-2.83-4.42l.15,0a16,16,0,0,0-2.9,4.42c-.17.38-.32.47-.67.47H45.5c-.18,0-.33-.17-.22-.49a15.9,15.9,0,0,1,4.08-6.08,20.31,20.31,0,0,1-3.65-6.09M5.26,37.1h5c.43,0,.62-.2.62-.6V35.3a.54.54,0,0,0-.62-.61h-5V32.44c0-.84.52-1.16,1.24-1.16h4.12c.48,0,.65-.1.71-.53l.2-1.38c.06-.43-.11-.6-.56-.6H5.84C3.42,28.77,2,30,2,32.63V41.3c0,.46.21.67.64.67h2c.45,0,.64-.24.64-.67ZM19,39.69c-2,0-2.57-1.13-2.57-2.66V29.44a.58.58,0,0,0-.65-.67h-2a.58.58,0,0,0-.65.67V36.9c0,4.36,2.77,5.26,5.67,5.26s6.09-1,6.09-5.45V29.44c0-.45-.21-.67-.64-.67h-2c-.45,0-.64.24-.64.67v7.74c0,1.46-.67,2.51-2.62,2.51m17.1-10.25a.58.58,0,0,1,.65-.67h2a.58.58,0,0,1,.65.67V41.3a.58.58,0,0,1-.65.67h-2c-.43,0-.65-.21-.65-.67Z"/></g></g></g></g></g></svg>