<svg id="Layer_1" data-name="Layer 1" xmlns="http://www.w3.org/2000/svg" viewBox="0 0 145 72"><defs><style>.cls-1{fill:#231f20;}.cls-2{fill:#0e7dc2;}</style></defs><path class="cls-1" d="M122.73,47.85h-7V46.29h4.62v-.78h-4.62V44.15h6.65v-.78h-8v5.26h8.26Zm-21.1-2V44.15h4.6c1.09,0,1.64.29,1.64.88s-.51.81-1.52.81Zm5.53.74h0a3.11,3.11,0,0,0,1.47-.48,1.24,1.24,0,0,0,.58-1.07,1.35,1.35,0,0,0-.71-1.21,3.61,3.61,0,0,0-2-.45h-6.23v5.26h1.31v-2h4l2.13,2h1.53Zm-17.65.09,2-2.55,2,2.55Zm2.84-3.3H90.71l-4.18,5.26H88l.91-1.18h5.32l.91,1.18h1.43Zm-9.82,0-2,4.41-2-4.41H76.91l-2,4.4-2-4.4H71.49l2.61,5.26h1.67l2-4.39,2,4.39h1.7L84,43.37Zm-13.85,0H59.83v.78H63.6v4.48h1.31V44.15h3.77Zm-11.32,0h-8v5.26h1.31V46.29h4.62v-.78H50.71V44.15h6.65ZM42.29,47.43h0A5.61,5.61,0,0,1,39.6,48a5.73,5.73,0,0,1-2.7-.54,1.64,1.64,0,0,1-1-1.45,1.67,1.67,0,0,1,1-1.43A5.64,5.64,0,0,1,39.6,44a5.74,5.74,0,0,1,2.52.5c.78.38,1.18.88,1.18,1.49A1.64,1.64,0,0,1,42.29,47.43Zm.77-3.52h0a7.64,7.64,0,0,0-3.46-.71,7.75,7.75,0,0,0-3.47.71c-1.07.55-1.61,1.24-1.61,2.08a2.38,2.38,0,0,0,1.59,2.09,7.69,7.69,0,0,0,3.49.7,7.8,7.8,0,0,0,3.47-.69A2.39,2.39,0,0,0,44.66,46C44.66,45.15,44.12,44.46,43.06,43.91ZM30,44h0a10.34,10.34,0,0,0-4.27-.78,7.86,7.86,0,0,0-2.94.43c-.69.28-1,.67-1,1.17s.3.82.92,1a11.12,11.12,0,0,0,2.73.35c1.47.06,2.37.12,2.71.18.64.11,1,.34,1,.67s-.25.51-.73.68a7.13,7.13,0,0,1-2.15.25,10.49,10.49,0,0,1-4-.75l-.72.63a10.22,10.22,0,0,0,4.7.88,8.86,8.86,0,0,0,3.19-.45c.74-.31,1.11-.74,1.11-1.3a1.11,1.11,0,0,0-.7-1,6.51,6.51,0,0,0-2.2-.48q-.52,0-2.16-.12a9.2,9.2,0,0,1-1.6-.16q-.69-.16-.69-.51c0-.22.22-.4.65-.52A6.74,6.74,0,0,1,25.63,44a11.24,11.24,0,0,1,3.58.59Z"/><path class="cls-2" d="M90.07,29h0c0,1.24-1,1.73-2.2,1.73H82.72V27.27h5.16C89.18,27.26,90.07,27.75,90.07,29Zm-1.19-5.77H77.73V40h5V34.75H87L89.86,40h5.52l-3.5-5.65c1.34-.66,3.17-1.61,3.07-5.59C94.86,25.14,92.06,23.22,88.88,23.22Z"/><rect class="cls-2" x="97.59" y="23.22" width="4.99" height="16.75"/><polygon class="cls-2" points="32.73 23.22 32.73 29.55 26.46 29.58 26.46 23.25 21.48 23.22 21.48 39.97 26.46 39.97 26.46 33.63 32.73 33.63 32.73 39.97 37.71 39.97 37.71 23.22 32.73 23.22"/><path class="cls-2" d="M38.75,23.22,45.06,33.3,47.18,28l-3-4.81m7.21,0h0s-3.86,9.65-4.63,11.36c-.43,1-1.77,1.31-2.87,1.24a6.48,6.48,0,0,1-2-.51l-1.66,4.08a12.31,12.31,0,0,0,4.25.88,9.75,9.75,0,0,0,3.12-.42,6.61,6.61,0,0,0,3.92-3.67l5.24-13Z"/><path class="cls-2" d="M70.44,34.58h0c0,1-.77,1.33-1.7,1.33H62.68V33.26h6.07C69.75,33.25,70.43,33.63,70.44,34.58Zm-.74-6h0c0,.95-.77,1.33-1.69,1.33H62.68V27.27H68C69,27.26,69.7,27.64,69.7,28.59Zm4.87-1h0c-.46-3.56-3.8-4.38-6.67-4.38H57.7V40H69.05c4,0,6.12-1.41,6.27-4.35.08-2.07-.54-3.4-1.89-4.23A4.62,4.62,0,0,0,74.57,27.6Z"/><path class="cls-2" d="M115.34,23.22H106V40h5V27.27h4.27c1.61.11,3.42.68,3.42,4.33s-2,4.31-3.42,4.31h-1.82V40h1.81c4.33,0,8.3-1.69,8.3-8.38S118.9,23.27,115.34,23.22Z"/></svg>