<svg id="Layer_1" data-name="Layer 1" xmlns="http://www.w3.org/2000/svg" viewBox="0 0 145 72"><defs><style>.t-l-cls-1{fill:#035c9f;}.t-l-cls-2{fill:#797a7f;}.t-l-cls-3{fill:#213c6e;}</style></defs><g id="Layer_2" data-name="Layer 2"><g id="Comments"><path class="t-l-cls-1" d="M50.17,47.59V31.68H53V47.59Z"/><path class="t-l-cls-1" d="M59.46,47.94a2.74,2.74,0,0,1-3.11-2.29,2.77,2.77,0,0,1,0-.76V24.24H59.2v20.1c0,.61.29,1.15,1,1.15a2.82,2.82,0,0,0,1.14-.25L62,47.46A8.27,8.27,0,0,1,59.46,47.94Z"/><path class="t-l-cls-1" d="M63.88,47.59V31.68h2.86V47.59Z"/><path class="t-l-cls-1" d="M75.78,47.94c-3.88,0-6.65-1.56-6.65-4.68,0-3.5,2.86-4.45,5.47-5C76.89,37.79,79,37.54,79,36c0-1.85-1.75-2.16-3.12-2.16a12.19,12.19,0,0,0-4.2,1l-1-2.22a13.83,13.83,0,0,1,5.37-1.28c3.79,0,5.82,1.75,5.82,5.09v8.31a17.27,17.27,0,0,0,.23,2A21.41,21.41,0,0,1,75.78,47.94ZM79,44.28v-5a8.71,8.71,0,0,1-3.18,1.05c-1.85.41-3.53.92-3.53,2.7s1.33,2.42,3.47,2.42a10.28,10.28,0,0,0,3.3-.54C79.05,44.71,79,44.49,79,44.28Z"/><path class="t-l-cls-2" d="M91.92,47.94a2.7,2.7,0,0,1-3.11-3V24.24h2.86v20.1c0,.61.28,1.15,1,1.15a2.83,2.83,0,0,0,1.15-.25l.67,2.22A8.33,8.33,0,0,1,91.92,47.94Z"/><path class="t-l-cls-2" d="M101.62,47.94c-3.88,0-6.64-1.56-6.64-4.68,0-3.5,2.86-4.45,5.47-5,2.29-.48,4.39-.73,4.39-2.29,0-1.85-1.75-2.16-3.12-2.16a12.19,12.19,0,0,0-4.2,1l-1-2.22a13.92,13.92,0,0,1,5.38-1.28c3.79,0,5.82,1.75,5.82,5.09v8.31a19.68,19.68,0,0,0,.22,2A21.29,21.29,0,0,1,101.62,47.94Zm3.25-3.66v-5a8.71,8.71,0,0,1-3.18,1.05c-1.85.41-3.53.92-3.53,2.7s1.33,2.42,3.46,2.42a10.3,10.3,0,0,0,3.31-.54C104.9,44.71,104.88,44.49,104.87,44.28Z"/><path class="t-l-cls-2" d="M116.19,47.94a16.79,16.79,0,0,1-5.6-1s.16-1.3.16-1.91V24.24h2.87v8a7.85,7.85,0,0,1,3.56-.86c4.87,0,7.25,3.69,7.25,8.24a8,8,0,0,1-7.55,8.36A5.3,5.3,0,0,1,116.19,47.94Zm.45-14.12a5.58,5.58,0,0,0-3,.92v9.67a3.64,3.64,0,0,1,0,.57,8.49,8.49,0,0,0,2.64.48c3.44,0,5-2.8,5-6C121.25,36.58,119.91,33.82,116.64,33.82Z"/><path class="t-l-cls-2" d="M130.06,47.91a14.13,14.13,0,0,1-4.77-.92l.83-2.3a10.75,10.75,0,0,0,3.75.83c1.46,0,3-.48,3-2.19,0-3.31-7.22-2.61-7.22-7.57,0-3.09,2.89-4.39,5.47-4.39a11.48,11.48,0,0,1,4.1.82h0l-.76,2.29a10.56,10.56,0,0,0-3.37-.7c-1.31,0-2.52.45-2.52,1.94,0,3.06,7.48,2.17,7.48,7.64C136,46.67,132.86,47.91,130.06,47.91Z"/><circle class="t-l-cls-1" cx="65.27" cy="26.24" r="1.72"/><circle class="t-l-cls-1" cx="51.6" cy="26.24" r="1.72"/><path class="t-l-cls-1" d="M48.74,47.24,48,44.89h0a9.18,9.18,0,0,1-2.83.6c-1,0-1.85-.38-1.85-1.69V34.17h4.61V31.68H43.3V27.33H40.44v4.32H38.6v2.48h1.16l.68,0v9.76c0,2.83,1.68,4.1,4.42,4.1A12.25,12.25,0,0,0,48.74,47.24Z"/><path class="t-l-cls-3" d="M15.25,24l-6.17,10a.61.61,0,0,0,0,.64l6.12,9.89a.42.42,0,0,0,.58.14.47.47,0,0,0,.14-.14l6.53-10.63-6.3-10.37A1.05,1.05,0,0,0,15.25,24Z"/><path class="t-l-cls-1" d="M35.73,33.93,29.44,23.75a.63.63,0,0,0-.53-.29H16.15l6.3,10.37,6.44,10.63a.44.44,0,0,0,.59.14.93.93,0,0,0,.14-.14l6.11-9.89A.57.57,0,0,0,35.73,33.93Z"/><path class="t-l-cls-1" d="M15.93,49.63a.36.36,0,0,0,.12.49.33.33,0,0,0,.19.06H28.56a.36.36,0,0,0,.36-.36.37.37,0,0,0-.05-.18L22.76,39.56a.36.36,0,0,0-.49-.12.34.34,0,0,0-.12.12Z"/></g></g></svg>